<svg xmlns="http://www.w3.org/2000/svg" width="64" height="64" fill="none"><path fill="#4D5AE5" d="M63.95 9.05a1.07 1.07 0 0 0-.86-.73l-3.82-.55-1.71-3.46c-.36-.73-1.56-.73-1.92 0l-1.7 3.46-3.83.55a1.07 1.07 0 0 0-.59 1.82l2.77 2.7-.66 3.8a1.07 1.07 0 0 0 1.55 1.13l3.42-1.8 3.42 1.8a1.07 1.07 0 0 0 1.54-1.13l-.65-3.8 2.77-2.7a1.07 1.07 0 0 0 .27-1.1Zm-4.93 2.65c-.25.25-.36.6-.3.95l.38 2.22-2-1.05a1.06 1.06 0 0 0-1 0l-2 1.05.38-2.22a1.07 1.07 0 0 0-.3-.95l-1.62-1.58 2.24-.32c.34-.05.64-.27.8-.59l1-2.02 1 2.02c.16.32.46.54.8.59l2.24.32-1.62 1.58Zm-6.75 29.34h-2.14v2.14h2.14v-2.14Zm0 4.27h-2.14v2.13h2.14v-2.13ZM54.4 43.18h-2.13v2.13h2.13v-2.13Zm-4.27 0H48v2.13h2.13v-2.13Zm-5.33 9.6h-2.13v2.13h2.13v-2.13Zm0 4.26h-2.13v2.14h2.13v-2.13Zm2.13-2.13H44.8v2.14h2.13V54.9Z"/><path fill="#4D5AE5" d="M42.67 54.91h-2.14v2.14h2.14V54.9ZM32 48.51h-2.13v2.14H32V48.5Zm0 4.27h-2.13v2.13H32v-2.13Zm2.13-2.13H32v2.13h2.13v-2.13Zm-4.26 0h-2.14v2.13h2.14v-2.13Zm-18.14-38.4H9.6v2.13h2.13v-2.14Zm0 4.26H9.6v2.13h2.13v-2.13Zm2.14-2.13h-2.14v2.13h2.14v-2.13Zm-4.27 0H7.47v2.13H9.6v-2.13Z"/><path fill="#2E2F42" d="M49.43 28.32a3.55 3.55 0 0 0-2.38-1.41 3.55 3.55 0 0 0-2.68.7l-2.5 1.92-3.8 2.84-2.71-1.08a13.87 13.87 0 0 0 8.23-12.64A13.9 13.9 0 0 0 29.66 4.78a13.91 13.91 0 0 0-13.92 13.87c0 2.77.83 5.34 2.24 7.51l-5.53-.04h-.05a1.04 1.04 0 0 0-.31.07l-.08.02c-.01 0-.03 0-.04.02L5.5 29.42l-3.78 1.82a.82.82 0 0 0-.13.07 3.56 3.56 0 0 0-1.2 4.59 3.55 3.55 0 0 0 2.12 1.78 3.56 3.56 0 0 0 2.75-.26l2.78-1.47 4.53-2.34 2.71-.02L4.4 44.42 1.71 47.1a3.3 3.3 0 0 0-.98 2.36 3.33 3.33 0 0 0 3.33 3.32c.86 0 1.71-.32 2.36-.97l2.63-2.61 3.48-2.6 1.8 1.8-3.52 3.5-2.68 2.67a3.3 3.3 0 0 0-.98 2.35 3.31 3.31 0 0 0 3.34 3.33 3.34 3.34 0 0 0 2.36-.97l2.68-2.67 4.29-4.26 2.02-2-.01-.01.04-.03 10.34-11.32 6.94.99a1.05 1.05 0 0 0 .52-.07l.1-.05.12-.05 6.42-4.27c.03-.01.04-.04.06-.06.03-.02.06-.02.08-.05l2.55-2.38a3.56 3.56 0 0 0 .42-4.72ZM4.26 35.54c-.35.19-.74.22-1.12.1a1.43 1.43 0 0 1-.42-2.52l2.63-1.26.63 1.85.26.77-1.98 1.06Zm7-3.65-3.1 1.6-.51-1.5-.37-1.07 4.05-2-.08 2.96Zm30.2-13.25c0 1.84-.44 3.57-1.2 5.12l-8.37-3.8a3.72 3.72 0 0 0-1.57-2.77l2.92-9.72a11.75 11.75 0 0 1 8.21 11.17Zm-23.58 0A11.78 11.78 0 0 1 31.15 7.01l-2.86 9.51h-.11a3.74 3.74 0 0 0-3.75 3.72 3.74 3.74 0 0 0 3.75 3.74 3.73 3.73 0 0 0 3.23-1.9l7.73 3.52a11.79 11.79 0 0 1-21.26-6.96Zm11.9 1.6c0 .89-.71 1.6-1.6 1.6a1.6 1.6 0 0 1-1.62-1.6c0-.88.73-1.6 1.62-1.6.88 0 1.6.72 1.6 1.6ZM4.94 50.3a1.22 1.22 0 0 1-1.7 0 1.19 1.19 0 0 1 0-1.68l1.92-1.92 1.7 1.7-1.92 1.9Zm6.43 7.47a1.22 1.22 0 0 1-1.71 0 1.19 1.19 0 0 1 0-1.69l1.92-1.92.8.8.9.9-1.91 1.9Zm6.96-6.94-3.53 3.52-.8-.8-.9-.9 3.52-3.5c.08-.08.13-.18.18-.27l.06-.08c.03-.09.03-.18.05-.26l.02-.15c0-.07-.02-.14-.04-.2 0-.07 0-.14-.03-.2-.04-.1-.11-.19-.19-.28-.02-.02-.02-.05-.05-.07l-3.21-3.2c-.04-.04-.08-.05-.12-.08a1.03 1.03 0 0 0-.17-.12.99.99 0 0 0-.19-.06 1.02 1.02 0 0 0-.2-.04 1.03 1.03 0 0 0-.2 0 1.07 1.07 0 0 0-.2.05.99.99 0 0 0-.2.09l-.11.05-3.55 2.65-1.8-1.8 4.8-4.76 8.72 8.57-1.86 1.84ZM31.96 36.8h-.1a1.04 1.04 0 0 0-.22.02.98.98 0 0 0-.37.13.99.99 0 0 0-.17.13l-.08.06-9.4 10.29-8.65-8.52 5.67-5.63a1.07 1.07 0 0 0-.76-1.83l-4.44.03.05-3.21 6.21.05a13.9 13.9 0 0 0 9.97 4.2c.87 0 1.72-.09 2.55-.24.08.06.16.13.26.17l4.82 1.92.3 1.51.36 1.77-6-.85Zm8.08.36-.63-3.12 2.9-2.16.75 1 1.14 1.51-4.16 2.77Zm7.5-5.67-1.67 1.57-1.86-2.47 1.66-1.27c.31-.24.7-.34 1.09-.29a1.43 1.43 0 0 1 .79 2.46Z"/><path fill="#2E2F42" d="m27.2 37.09-4.28-4.27a1.07 1.07 0 0 0-1.5 0l-4.3 4.27a1.07 1.07 0 0 0 0 1.51l4.3 4.27a1.07 1.07 0 0 0 1.5 0l4.28-4.27a1.07 1.07 0 0 0 0-1.51Zm-5.03 3.52-2.78-2.77 2.78-2.76 2.77 2.76-2.77 2.77Zm12.16-30.47-.52 2.07c.15.04 3.48.9 3.48 4.3h2.13c0-4.03-3.33-5.93-5.1-6.37Zm5.1 8.5h-2.14v2.14h2.13v-2.14Z"/></svg>