<svg xmlns="http://www.w3.org/2000/svg" width="64" height="64" fill="none"><g clip-path="url(#a)"><path fill="#2E2F42" d="M62.6 30.6a30.6 30.6 0 1 0-61.23.02 30.61 30.61 0 0 0 21.3 29.15c.12.04.25.06.38.05a1.28 1.28 0 0 0 1.25-.9l7.73-24.5a3.83 3.83 0 1 0-1.68-7.26L20.14 16.94a1.27 1.27 0 0 0-1.8 1.8l10.2 10.22a3.75 3.75 0 0 0 1.07 4.62l-7.36 23.35A28.09 28.09 0 1 1 58.3 40.28 28.09 28.09 0 0 1 43.4 56.23l-.8-3.75a1.27 1.27 0 0 0-2.1-.69l-7.67 6.85a1.27 1.27 0 0 0 .46 2.17l9.8 3.13a1.27 1.27 0 0 0 1.64-1.48l-.78-3.68A30.51 30.51 0 0 0 62.59 30.6Zm-30.62-1.27a1.28 1.28 0 1 1 0 2.55 1.28 1.28 0 0 1 0-2.55Zm4.2 29.73 4.37-3.9 1.2 5.68-5.56-1.78Z"/><path fill="#4D5AE5" d="M30.7 6.37v2.55a1.27 1.27 0 1 0 2.56 0V6.37a1.28 1.28 0 0 0-2.55 0ZM7.76 29.33a1.27 1.27 0 0 0 0 2.55h2.55a1.27 1.27 0 1 0 0-2.55H7.75Zm48.47 2.55a1.27 1.27 0 1 0 0-2.55h-2.55a1.28 1.28 0 0 0 0 2.55h2.55Z"/></g><defs><clipPath id="a"><path fill="#fff" d="M0 0h64v64H0z"/></clipPath></defs></svg>