<svg xmlns="http://www.w3.org/2000/svg" width="64" height="64" fill="none"><g clip-path="url(#a)"><path fill="#4D5AE5" d="M29.85 29.93h2.13v9.6h-2.13v-9.6Zm8.53 4.26h2.13v5.33h-2.13V34.2Zm-17.06 3.2h2.13v2.13h-2.13V37.4Zm-6.4-1.06h2.14v3.2h-2.14v-3.2Z"/><path fill="#2E2F42" d="M3.2 56.58h51.17a3.2 3.2 0 0 0 3.2-3.2v-4.26a3.2 3.2 0 0 0-3.2-3.2h-1.06V19.33l6.05-5.73a3.22 3.22 0 1 0-1.5-1.53L53.3 16.4v-2.46a3.2 3.2 0 0 0-3.2-3.2H7.47a3.2 3.2 0 0 0-3.2 3.2v31.98H3.2a3.2 3.2 0 0 0-3.2 3.2v4.26a3.2 3.2 0 0 0 3.2 3.2Zm57.57-46.9a1.07 1.07 0 1 1 0 2.13 1.07 1.07 0 0 1 0-2.14ZM6.4 13.93c0-.6.47-1.07 1.06-1.07h42.65c.59 0 1.06.48 1.06 1.07v4.48l-2.13 2.02v-4.37c0-.59-.48-1.07-1.06-1.07H9.6c-.6 0-1.07.48-1.07 1.07v26.65c0 .6.48 1.07 1.06 1.07h38.39c.58 0 1.06-.48 1.06-1.07V23.37l2.13-2.02v24.57H6.4V13.94ZM16 27.8a3.2 3.2 0 1 0 2.2 5.5l3.71 1.85c.43.22.95.12 1.27-.24l7.88-8.87 7.75 5.8c.41.32 1 .29 1.37-.07l6.73-6.38v16.27H10.66V17.14h36.25v5.32l-7.54 7.14-7.81-5.86a1.07 1.07 0 0 0-1.44.15l-7.98 8.98-3-1.49c.03-.13.05-.25.05-.38a3.2 3.2 0 0 0-3.2-3.2Zm1.06 3.2a1.07 1.07 0 1 1-2.13 0 1.07 1.07 0 0 1 2.13 0Zm6.4 17.05H34.1v1.07c0 .59-.47 1.07-1.06 1.07h-8.53a1.07 1.07 0 0 1-1.07-1.07v-1.07ZM2.12 49.12c0-.59.48-1.07 1.07-1.07h18.12v1.07a3.2 3.2 0 0 0 3.2 3.2h8.53a3.2 3.2 0 0 0 3.2-3.2v-1.07h18.12c.59 0 1.07.48 1.07 1.07v4.26c0 .6-.48 1.07-1.07 1.07H3.2a1.07 1.07 0 0 1-1.07-1.07v-4.26Z"/></g><defs><clipPath id="a"><path fill="#fff" d="M0 0h64v64H0z"/></clipPath></defs></svg>