<svg aria-hidden="true" style="position: absolute; width: 0; height: 0; overflow: hidden;" version="1.1" xmlns="http://www.w3.org/2000/svg" xmlns:xlink="http://www.w3.org/1999/xlink">
<defs>
<symbol id="icon-antena" viewBox="0 0 30 32">
<path fill="#2e2f42" style="fill: var(--color1, #2e2f42)" d="M29.775 22.1l-8.445-8.505 0.935-4.62c0.245 0.1 0.5 0.15 0.76 0.15h0.005c0.009 0 0.020 0 0.032 0 1.193 0 2.16-0.967 2.16-2.16s-0.967-2.16-2.16-2.16c-1.193 0-2.16 0.967-2.16 2.16 0 0.258 0.045 0.505 0.128 0.735l-0.005-0.015-4.96 0.61-8.090-8.135c-0.097-0.096-0.23-0.156-0.378-0.156-0.145 0-0.276 0.058-0.373 0.151l0-0-1.515 1.5c-0.21 0.21-0.21 0.55 0 0.76l0.815 0.825c-1.142 2.062-1.815 4.521-1.815 7.137 0 4.105 1.656 7.824 4.336 10.524l-0.001-0.001c0.040 0.045 0.090 0.075 0.145 0.1-0.035 0.18-0.050 0.365-0.050 0.55v6.185h-6.405c0 0 0 0 0 0-1.473 0-2.667 1.193-2.67 2.665v1.065c0 0.3 0.24 0.535 0.535 0.535h24.53c0.3 0 0.535-0.24 0.535-0.535v-1.065c-0.003-1.471-1.194-2.662-2.665-2.665h-6.4v-2.745c0.914 0.2 1.964 0.315 3.041 0.315 2.582 0 5.011-0.659 7.126-1.818l-0.077 0.039 0.815 0.825c0.1 0.1 0.235 0.16 0.375 0.16s0.275-0.055 0.375-0.15l1.515-1.51c0.205-0.205 0.205-0.545 0-0.75zM22.28 6.235c0.193-0.192 0.458-0.31 0.751-0.31 0.588 0 1.065 0.477 1.065 1.065s-0.477 1.065-1.065 1.065c-0 0-0.001 0-0.001 0h0c-0.588-0.001-1.064-0.477-1.064-1.065 0-0.295 0.12-0.562 0.314-0.755l0-0zM21.025 9.735l-0.6 2.95-1.175-1.185 1.775-1.76zM20.42 8.835l-1.92 1.915-1.485-1.495 3.4-0.415zM23 28.8c0.884 0 1.6 0.716 1.6 1.6v0 0.535h-23.465v-0.535c0-0.884 0.716-1.6 1.6-1.6v0h20.27zM15.53 26.665v1.070h-5.325v-1.070h5.33zM10.205 25.6v-4.050c0-1.3 1.2-2.35 2.665-2.35 1.47 0 2.665 1.050 2.665 2.35v4.050h-5.33zM16.605 23.9v-2.35c0-1.885-1.675-3.415-3.735-3.415-0.017-0-0.038-0-0.058-0-1.352 0-2.539 0.706-3.213 1.77l-0.009 0.016c-2.361-2.482-3.813-5.847-3.813-9.552 0-2.314 0.567-4.497 1.569-6.415l-0.036 0.077 18.6 18.71c-1.823 0.947-3.98 1.503-6.268 1.503-1.077 0-2.125-0.123-3.131-0.356l0.093 0.018zM27.895 23.22l-21.060-21.18 0.755-0.75 21.060 21.18-0.755 0.75z"></path>
<path fill="#4d5ae5" style="fill: var(--color2, #4d5ae5)" d="M12.875 20.265c-0.002 0-0.003 0-0.005 0-0.884 0-1.6 0.716-1.6 1.6 0 0.882 0.713 1.597 1.595 1.6h0.005c0.001 0 0.002 0 0.002 0 0.884 0 1.6-0.716 1.6-1.6s-0.715-1.599-1.597-1.6h-0zM13.25 22.245c-0.097 0.099-0.232 0.16-0.382 0.16-0.295 0-0.535-0.24-0.535-0.535s0.24-0.535 0.535-0.535c0.001 0 0.001 0 0.002 0h-0c0.293 0.004 0.528 0.242 0.528 0.535 0 0.146-0.059 0.279-0.154 0.375l0-0z"></path>
</symbol>
<symbol id="icon-astronaut" viewBox="0 0 32 32">
<path fill="#4d5ae5" style="fill: var(--color2, #4d5ae5)" d="M31.975 4.525c-0.063-0.192-0.227-0.334-0.427-0.365l-0.003-0-1.91-0.275-0.855-1.73c-0.18-0.365-0.78-0.365-0.96 0l-0.85 1.73-1.915 0.275c-0.259 0.040-0.454 0.262-0.454 0.529 0 0.149 0.061 0.284 0.159 0.381l0 0 1.385 1.35-0.33 1.9c-0.005 0.027-0.008 0.059-0.008 0.091 0 0.295 0.24 0.535 0.535 0.535 0.091 0 0.176-0.023 0.251-0.062l-0.003 0.001 1.71-0.9 1.71 0.9c0.070 0.037 0.154 0.058 0.242 0.058 0.295 0 0.535-0.24 0.535-0.535 0-0.031-0.003-0.062-0.008-0.091l0 0.003-0.325-1.9 1.385-1.35c0.1-0.097 0.162-0.233 0.162-0.383 0-0.060-0.010-0.117-0.028-0.171l0.001 0.004zM29.51 5.85c-0.125 0.125-0.18 0.3-0.15 0.475l0.19 1.11-1-0.525c-0.072-0.039-0.158-0.063-0.25-0.063s-0.178 0.023-0.253 0.064l0.003-0.001-1 0.525 0.19-1.11c0.005-0.029 0.009-0.061 0.009-0.095 0-0.149-0.061-0.283-0.158-0.38l-0-0-0.81-0.79 1.12-0.16c0.17-0.025 0.32-0.135 0.4-0.295l0.5-1.010 0.5 1.010c0.080 0.16 0.23 0.27 0.4 0.295l1.12 0.16-0.81 0.79zM26.135 20.52h-1.070v1.070h1.070v-1.070zM26.135 22.655h-1.070v1.065h1.070v-1.065zM27.2 21.59h-1.065v1.065h1.065v-1.065zM25.065 21.59h-1.065v1.065h1.065v-1.065zM22.4 26.39h-1.065v1.065h1.065v-1.065zM22.4 28.52h-1.065v1.070h1.065v-1.065zM23.465 27.455h-1.065v1.070h1.065v-1.075z"></path>
<path fill="#4d5ae5" style="fill: var(--color2, #4d5ae5)" d="M21.335 27.455h-1.070v1.070h1.070v-1.075zM16 24.255h-1.065v1.070h1.065v-1.075zM16 26.39h-1.065v1.065h1.065v-1.065zM17.065 25.325h-1.065v1.065h1.065v-1.065zM14.935 25.325h-1.070v1.065h1.070v-1.065zM5.865 6.125h-1.065v1.065h1.065v-1.070zM5.865 8.255h-1.065v1.065h1.065v-1.065zM6.935 7.19h-1.070v1.065h1.070v-1.065zM4.8 7.19h-1.065v1.065h1.065v-1.065z"></path>
<path fill="#2e2f42" style="fill: var(--color1, #2e2f42)" d="M24.715 14.16c-0.28-0.377-0.7-0.637-1.181-0.704l-0.009-0.001c-0.077-0.012-0.166-0.019-0.257-0.019-0.41 0-0.787 0.139-1.087 0.372l0.004-0.003-1.25 0.96-1.9 1.42-1.355-0.54c2.44-1.106 4.108-3.517 4.115-6.319v-0.001c-0.009-3.832-3.117-6.935-6.95-6.935-0.005 0-0.011 0-0.016 0h0.001c-0.002 0-0.003 0-0.005 0-3.834 0-6.944 3.102-6.955 6.934v0.001c0 1.385 0.415 2.67 1.12 3.755l-2.79-0.020c-0.057 0.004-0.109 0.017-0.159 0.036l0.003-0.001-0.040 0.010c-0.005 0-0.015 0-0.020 0.010l-3.235 1.595-1.89 0.91c-0.025 0.011-0.046 0.023-0.067 0.036l0.001-0.001c-0.483 0.323-0.796 0.867-0.796 1.483 0 0.296 0.072 0.576 0.201 0.822l-0.005-0.010c0.22 0.425 0.595 0.744 1.047 0.887l0.013 0.003c0.159 0.052 0.343 0.082 0.533 0.082 0.308 0 0.598-0.078 0.851-0.216l-0.009 0.005 1.39-0.735 2.265-1.17 1.355-0.010-6.785 6.755c-0.303 0.299-0.49 0.714-0.49 1.173 0 0.002 0 0.005 0 0.007v-0c0.003 0.917 0.747 1.66 1.665 1.66 0 0 0 0 0 0v0c0.43 0 0.855-0.16 1.18-0.485l1.315-1.305 1.74-1.3 0.9 0.9-3.1 3.085c-0.303 0.299-0.49 0.714-0.49 1.173 0 0.001 0 0.001 0 0.002v-0c-0 0.003-0 0.007-0 0.010 0 0.914 0.741 1.655 1.655 1.655 0.005 0 0.011-0 0.016-0h-0.001c0.001 0 0.002 0 0.003 0 0.459 0 0.875-0.185 1.177-0.485l-0 0 1.34-1.335 3.155-3.13-0.005-0.005 0.020-0.015 5.17-5.66 3.47 0.495c0.019 0.002 0.040 0.004 0.062 0.004 0.071 0 0.139-0.014 0.201-0.040l-0.003 0.001 0.050-0.025 0.060-0.025 3.21-2.135c0.015-0.005 0.020-0.020 0.030-0.030 0.015-0.010 0.030-0.010 0.040-0.025l1.275-1.19c0.346-0.326 0.562-0.786 0.562-1.298 0-0.4-0.132-0.77-0.355-1.067l0.003 0.005zM2.13 17.77c-0.175 0.095-0.37 0.11-0.56 0.050-0.294-0.093-0.503-0.364-0.503-0.683 0-0.236 0.115-0.446 0.291-0.576l0.002-0.001 1.315-0.63 0.315 0.925 0.13 0.385-0.99 0.53zM5.63 15.945l-1.55 0.8-0.255-0.75-0.185-0.535 2.025-1-0.040 1.48zM20.73 9.32c0 0.92-0.22 1.785-0.6 2.56l-4.185-1.9c-0.043-0.574-0.341-1.070-0.779-1.381l-0.006-0.004 1.46-4.86c2.394 0.774 4.097 2.979 4.105 5.584v0.001zM8.94 9.32c0.016-3.241 2.647-5.862 5.89-5.862 0.263 0 0.521 0.017 0.775 0.051l-0.030-0.003-1.43 4.755h-0.055c-0.002 0-0.003 0-0.005 0-1.029 0-1.864 0.832-1.87 1.859v0.001c0 0 0 0 0 0 0 1.033 0.837 1.87 1.87 1.87 0.002 0 0.004 0 0.005 0h-0c0.69-0.004 1.291-0.382 1.61-0.941l0.005-0.009 3.865 1.76c-1.086 1.453-2.802 2.384-4.735 2.384-3.245 0-5.877-2.621-5.895-5.862v-0.002zM14.89 10.12c0 0.445-0.355 0.8-0.8 0.8-0.003 0-0.006 0-0.010 0-0.442 0-0.8-0.358-0.8-0.8 0-0 0-0 0-0v0c0-0.44 0.365-0.8 0.81-0.8 0.44 0 0.8 0.36 0.8 0.8zM2.47 25.15c-0.11 0.107-0.26 0.172-0.425 0.172s-0.315-0.066-0.425-0.173l0 0c-0.107-0.108-0.174-0.256-0.174-0.42s0.066-0.312 0.174-0.42l0.96-0.96 0.85 0.85-0.96 0.95zM5.685 28.885c-0.11 0.108-0.261 0.175-0.428 0.175s-0.317-0.067-0.428-0.175l0 0c-0.109-0.108-0.176-0.257-0.176-0.422s0.067-0.315 0.176-0.422l0.96-0.96 0.85 0.85-0.955 0.95zM9.165 25.415l-1.765 1.76-0.85-0.85 1.76-1.75c0.040-0.040 0.065-0.090 0.090-0.135l0.030-0.040c0.015-0.045 0.015-0.090 0.025-0.13l0.010-0.075c0-0.035-0.010-0.070-0.020-0.1 0-0.035 0-0.070-0.015-0.1-0.020-0.050-0.055-0.095-0.095-0.14-0.010-0.010-0.010-0.025-0.025-0.035l-1.605-1.6c-0.020-0.020-0.040-0.025-0.060-0.040-0.025-0.022-0.053-0.042-0.082-0.059l-0.003-0.001c-0.027-0.012-0.059-0.022-0.092-0.029l-0.003-0.001c-0.029-0.009-0.063-0.016-0.098-0.020l-0.002-0c-0.015-0.002-0.032-0.002-0.050-0.002s-0.035 0.001-0.052 0.003l0.002-0c-0.038 0.006-0.071 0.014-0.104 0.026l0.004-0.001c-0.038 0.012-0.071 0.028-0.102 0.046l0.002-0.001-0.055 0.025-1.775 1.325-0.9-0.9 2.4-2.38 4.36 4.285-0.93 0.92zM15.98 18.4h-0.050c-0.002-0-0.005-0-0.008-0-0.036 0-0.071 0.004-0.105 0.011l0.003-0.001c-0.069 0.010-0.132 0.033-0.187 0.066l0.002-0.001c-0.032 0.020-0.060 0.041-0.085 0.065l0-0-0.040 0.030-4.7 5.145-4.325-4.26 2.835-2.815c0.098-0.097 0.158-0.231 0.158-0.38 0-0.295-0.24-0.535-0.535-0.535-0.001 0-0.002 0-0.004 0h0l-2.22 0.015 0.025-1.605 3.105 0.025c1.264 1.296 3.027 2.1 4.978 2.1 0.002 0 0.005 0 0.007 0h-0c0.435 0 0.86-0.045 1.275-0.12 0.040 0.030 0.080 0.065 0.13 0.085l2.41 0.96 0.15 0.755 0.18 0.885-3-0.425zM20.020 18.58l-0.315-1.56 1.45-1.080 0.375 0.5 0.57 0.755-2.080 1.385zM23.77 15.745l-0.835 0.785-0.93-1.235 0.83-0.635c0.155-0.12 0.35-0.17 0.545-0.145 0.352 0.048 0.621 0.347 0.621 0.709 0 0.205-0.087 0.39-0.225 0.521l-0 0z"></path>
<path fill="#2e2f42" style="fill: var(--color1, #2e2f42)" d="M13.6 18.545l-2.14-2.135c-0.096-0.095-0.229-0.153-0.375-0.153s-0.279 0.059-0.375 0.154l0-0-2.15 2.135c-0.096 0.097-0.156 0.23-0.156 0.378s0.060 0.281 0.156 0.378l-0-0 2.15 2.135c0.096 0.095 0.229 0.153 0.375 0.153s0.279-0.059 0.375-0.154l-0 0 2.14-2.135c0.096-0.097 0.156-0.23 0.156-0.378s-0.060-0.281-0.156-0.378l0 0zM11.085 20.305l-1.39-1.385 1.39-1.38 1.385 1.38-1.385 1.385zM17.165 5.070l-0.26 1.035c0.075 0.020 1.74 0.45 1.74 2.15h1.065c0-2.015-1.665-2.965-2.55-3.185zM19.715 9.32h-1.070v1.070h1.065v-1.070z"></path>
</symbol>
<symbol id="icon-clock" viewBox="0 0 32 32">
<path fill="#2e2f42" style="fill: var(--color1, #2e2f42)" d="M31.3 15.3c-0.003-8.452-6.855-15.303-15.307-15.303-8.454 0-15.307 6.853-15.307 15.307 0 0.002 0 0.004 0 0.005v-0c0.002 6.788 4.423 12.542 10.542 14.544l0.108 0.031c0.060 0.020 0.125 0.030 0.19 0.025 0.004 0 0.009 0 0.014 0 0.286 0 0.528-0.187 0.61-0.446l0.001-0.005 3.865-12.25c0.004 0 0.008 0 0.012 0 1.058 0 1.915-0.857 1.915-1.915s-0.857-1.915-1.915-1.915c-0.31 0-0.604 0.074-0.863 0.205l0.011-0.005-5.105-5.11c-0.115-0.115-0.274-0.186-0.45-0.186-0.351 0-0.636 0.285-0.636 0.636 0 0.176 0.071 0.335 0.186 0.45v0l5.1 5.11c-0.121 0.241-0.192 0.526-0.192 0.827 0 0.601 0.283 1.137 0.723 1.48l0.004 0.003-3.68 11.675c-5.415-2.032-9.198-7.165-9.198-13.182 0-7.757 6.288-14.045 14.045-14.045s14.045 6.288 14.045 14.045c0 1.744-0.318 3.413-0.899 4.954l0.032-0.097c-1.342 3.58-3.996 6.404-7.362 7.939l-0.088 0.036-0.4-1.875c-0.060-0.293-0.316-0.51-0.623-0.51-0.165 0-0.315 0.063-0.428 0.166l0-0-3.835 3.425c-0.134 0.117-0.217 0.288-0.217 0.478 0 0.284 0.186 0.524 0.443 0.605l0.005 0.001 4.9 1.565c0.060 0.020 0.128 0.032 0.2 0.032 0.351 0 0.635-0.284 0.635-0.635 0-0.049-0.005-0.096-0.016-0.142l0.001 0.004-0.39-1.84c5.523-2.376 9.32-7.771 9.32-14.053 0-0.013-0-0.026-0-0.039v0.002zM15.99 14.665c0.017-0.002 0.037-0.002 0.057-0.002 0.353 0 0.64 0.287 0.64 0.64s-0.287 0.64-0.64 0.64c-0.020 0-0.040-0.001-0.059-0.003l0.002 0c-0.328-0.030-0.584-0.304-0.584-0.637s0.255-0.608 0.581-0.637l0.002-0zM18.090 29.53l2.185-1.95 0.6 2.84-2.78-0.89z"></path>
<path fill="#4d5ae5" style="fill: var(--color2, #4d5ae5)" d="M15.35 3.185v1.275c0 0.353 0.287 0.64 0.64 0.64s0.64-0.287 0.64-0.64v0-1.275c-0.030-0.328-0.304-0.583-0.637-0.583s-0.608 0.255-0.637 0.581l-0 0.002zM3.88 14.665c-0.352 0-0.638 0.285-0.638 0.637s0.285 0.637 0.638 0.637v0h1.275c0.352 0 0.638-0.285 0.638-0.637s-0.285-0.637-0.638-0.637v0h-1.28zM28.115 15.94c0.352 0 0.637-0.285 0.637-0.637s-0.285-0.637-0.637-0.637v0h-1.275c-0.328 0.030-0.584 0.304-0.584 0.637s0.255 0.608 0.581 0.637l0.003 0h1.275z"></path>
</symbol>
<symbol id="icon-diagram" viewBox="0 0 32 32">
<path fill="#4d5ae5" style="fill: var(--color2, #4d5ae5)" d="M14.925 14.965h1.065v4.8h-1.065v-4.8zM19.19 17.095h1.065v2.665h-1.065v-2.66zM10.66 18.695h1.065v1.065h-1.065v-1.060zM7.46 18.165h1.070v1.6h-1.070v-1.6z"></path>
<path fill="#2e2f42" style="fill: var(--color1, #2e2f42)" d="M1.6 28.29h25.585c0.884 0 1.6-0.716 1.6-1.6v0-2.13c0-0.884-0.716-1.6-1.6-1.6v0h-0.53v-13.295l3.025-2.865c0.207 0.104 0.451 0.165 0.709 0.165 0.889 0 1.61-0.721 1.61-1.61s-0.721-1.61-1.61-1.61c-0.889 0-1.61 0.721-1.61 1.61 0 0.247 0.056 0.481 0.155 0.69l-0.004-0.010-2.28 2.165v-1.23c0-0.884-0.716-1.6-1.6-1.6v0h-21.315c-0.884 0-1.6 0.716-1.6 1.6v0 15.99h-0.535c-0.884 0-1.6 0.716-1.6 1.6v0 2.13c0 0.884 0.716 1.6 1.6 1.6v0zM30.385 4.84c0.015-0.002 0.033-0.003 0.052-0.003 0.295 0 0.535 0.24 0.535 0.535s-0.24 0.535-0.535 0.535c-0.018 0-0.036-0.001-0.054-0.003l0.002 0c-0.295 0-0.535-0.24-0.535-0.535s0.24-0.535 0.535-0.535v0zM3.2 6.965c0-0.3 0.235-0.535 0.53-0.535h21.325c0.295 0 0.53 0.24 0.53 0.535v2.24l-1.065 1.010v-2.185c0-0.295-0.24-0.535-0.53-0.535h-19.19c-0.3 0-0.535 0.24-0.535 0.535v13.325c0 0.3 0.24 0.535 0.53 0.535h19.195c0.29 0 0.53-0.24 0.53-0.535v-9.67l1.065-1.010v12.285h-22.385v-15.99zM8 13.9c-0.004-0-0.008-0-0.012-0-0.884 0-1.6 0.716-1.6 1.6s0.716 1.6 1.6 1.6c0.432 0 0.825-0.172 1.113-0.45l-0 0 1.855 0.925c0.215 0.11 0.475 0.060 0.635-0.12l3.94-4.435 3.875 2.9c0.205 0.16 0.5 0.145 0.685-0.035l3.365-3.19v8.135h-18.125v-12.26h18.125v2.66l-3.77 3.57-3.905-2.93c-0.088-0.066-0.199-0.106-0.319-0.106-0.159 0-0.302 0.070-0.4 0.18l-0 0.001-3.99 4.49-1.5-0.745c0.015-0.065 0.025-0.125 0.025-0.19 0-0.884-0.716-1.6-1.6-1.6v0zM8.53 15.5c0.002 0.015 0.002 0.033 0.002 0.052 0 0.295-0.24 0.535-0.535 0.535s-0.535-0.24-0.535-0.535c0-0.018 0.001-0.036 0.003-0.054l-0 0.002c0.027-0.272 0.255-0.483 0.532-0.483s0.505 0.211 0.532 0.481l0 0.002zM11.73 24.025h5.32v0.535c0 0.295-0.235 0.535-0.53 0.535h-4.265c-0.295 0-0.535-0.24-0.535-0.535v-0.535zM1.060 24.56c0-0.295 0.24-0.535 0.535-0.535h9.060v0.535c0 0.884 0.716 1.6 1.6 1.6h4.265c0.884 0 1.6-0.716 1.6-1.6v0-0.535h9.060c0.295 0 0.535 0.24 0.535 0.535v2.13c0 0.3-0.24 0.535-0.535 0.535h-25.58c-0.295 0-0.535-0.24-0.535-0.535v0-2.13z"></path>
</symbol>
<symbol id="icon-fifth" viewBox="0 0 44 32">
<path fill="#8e8f99" style="fill: var(--color4, #8e8f99)" d="M3.339 26.692c0.167 0.195 0.257 0.431 0.25 0.675 0.007 0.16-0.021 0.32-0.090 0.466s-0.174 0.278-0.306 0.383c-0.334 0.23-0.744 0.341-1.155 0.313h-2.038v-4.264h1.997c0.39-0.028 0.779 0.070 1.099 0.278 0.132 0.097 0.23 0.223 0.299 0.362s0.097 0.285 0.090 0.438c0.014 0.237-0.070 0.466-0.23 0.654-0.16 0.167-0.369 0.285-0.612 0.334 0.278 0.042 0.515 0.174 0.696 0.362zM0.946 26.052h0.863c0.188 0.014 0.383-0.042 0.536-0.139 0.070-0.056 0.118-0.118 0.146-0.195 0.035-0.070 0.049-0.146 0.042-0.23 0-0.008 0.001-0.017 0.001-0.027 0-0.071-0.016-0.138-0.044-0.199l0.001 0.003c-0.033-0.074-0.080-0.137-0.138-0.187l-0.001-0.001c-0.138-0.093-0.309-0.148-0.492-0.148-0.023 0-0.045 0.001-0.067 0.003l0.003-0h-0.835v1.113zM2.421 27.687c0.070-0.056 0.125-0.118 0.16-0.195 0.027-0.059 0.043-0.128 0.043-0.2 0-0.013-0.001-0.025-0.001-0.038l0 0.002c0.001-0.013 0.002-0.027 0.002-0.042 0-0.073-0.016-0.142-0.045-0.204l0.001 0.003c-0.039-0.078-0.093-0.143-0.159-0.194l-0.001-0.001c-0.147-0.097-0.327-0.155-0.521-0.155-0.020 0-0.040 0.001-0.059 0.002l0.003-0h-0.897v1.162h0.904c0.209 0.014 0.403-0.042 0.57-0.146zM7.409 28.522l-1.113-1.663h-0.417v1.67h-0.946v-4.264h1.809c0.452-0.028 0.904 0.097 1.252 0.362 0.257 0.23 0.41 0.536 0.431 0.856 0.028 0.327-0.077 0.647-0.292 0.904-0.223 0.237-0.529 0.39-0.863 0.438l1.183 1.704h-1.043zM5.878 26.282h0.786c0.543 0 0.814-0.216 0.814-0.647 0-0.007 0-0.016 0-0.024 0-0.084-0.018-0.165-0.051-0.237l0.001 0.004c-0.036-0.087-0.088-0.162-0.153-0.222l-0-0c-0.148-0.111-0.335-0.177-0.537-0.177-0.026 0-0.052 0.001-0.078 0.003l0.003-0h-0.793l0.014 1.301zM12.619 27.673h-1.899l-0.334 0.849h-1.002l1.746-4.209h1.078l1.739 4.216h-0.995l-0.334-0.856zM12.369 27.026l-0.696-1.809-0.696 1.809h1.391zM19.144 28.522h-0.946l-2.122-2.894v2.894h-0.946v-4.264h0.946l2.122 2.922v-2.922h0.946v4.264zM24.55 27.506c-0.195 0.32-0.494 0.584-0.856 0.751-0.417 0.188-0.87 0.278-1.329 0.271h-1.69v-4.264h1.69c0.459-0.014 0.911 0.077 1.322 0.257 0.369 0.167 0.668 0.424 0.863 0.744 0.185 0.322 0.294 0.708 0.294 1.12s-0.109 0.798-0.3 1.131l0.006-0.011zM23.464 27.402c0.278-0.278 0.417-0.64 0.417-1.016s-0.139-0.73-0.417-1.016c-0.294-0.228-0.669-0.365-1.075-0.365-0.038 0-0.075 0.001-0.112 0.003l0.005-0h-0.661v2.762h0.661c0.431 0.021 0.856-0.111 1.183-0.369zM13.217 0.536s12.216 4.153 11.958 10.157v10.177s-12.209-4.16-11.958-10.17v-10.163zM36.063 18.483c2.219-1.383 4.86-2.305 7.693-2.569l0.071-0.005v-3.186c-3.203 1.1-5.857 3.107-7.732 5.713l-0.032 0.047z"></path>
<path fill="#8e8f99" style="fill: var(--color4, #8e8f99)" d="M34.678 19.443c2.019-3.494 5.214-6.118 9.034-7.356l0.114-0.032v-9.169s-17.405 5.913-17.037 14.477v14.47s0.779-0.257 1.997-0.758c0-0.459 0-0.925 0.056-1.391 0.362-3.979 2.456-7.659 5.837-10.24z"></path>
<path fill="#8e8f99" style="fill: var(--color4, #8e8f99)" d="M33.023 24.821c0.090-1.009 0.292-1.997 0.605-2.963-2.184 2.275-3.566 5.334-3.686 8.714l-0.001 0.023c1.461-0.626 2.563-1.157 3.642-1.725l-0.289 0.138c-0.211-0.895-0.332-1.923-0.332-2.979 0-0.426 0.020-0.846 0.058-1.262l-0.004 0.053zM33.711 24.87c-0.118 1.266-0.042 2.546 0.216 3.798 4.758-2.56 10.108-6.518 9.899-11.304v-0.417c-3.395 0.348-6.574 1.683-9.043 3.805-0.546 1.203-0.924 2.6-1.060 4.067l-0.004 0.052z"></path>
</symbol>
<symbol id="icon-first" viewBox="0 0 28 32">
<path fill="#8e8f99" style="fill: var(--color4, #8e8f99)" d="M4.085 0l4.766 4.548-8.851-0.007v22.060h23.149v-8.443l4.766 4.541v-22.7h-23.83zM22.945 17.634l-13.542-12.902h13.542v12.902zM18.737 23.367h-15.074v-14.829h1.069v13.821h14.005v1.008zM6.672 30.679l-0.565-1.157h-0.456l0.817 1.532v0.885h0.415v-0.885l0.817-1.532h-0.463l-0.558 1.157zM8.742 29.522h0.095l0.919 2.424h-0.443l-0.197-0.565h-0.933l-0.197 0.565h-0.436l0.912-2.424h0.279zM8.3 31.047h0.708l-0.354-1.021-0.354 1.021zM11.227 30.645c-0.078-0.088-0.144-0.189-0.194-0.299l-0.003-0.008c-0.033-0.075-0.052-0.163-0.052-0.255 0-0.114 0.029-0.221 0.081-0.314l-0.002 0.003c0.052-0.088 0.126-0.158 0.215-0.203l0.003-0.001c0.095-0.054 0.204-0.075 0.334-0.075 0.123 0 0.225 0.020 0.313 0.068 0.169 0.089 0.282 0.264 0.282 0.465 0 0.076-0.016 0.148-0.045 0.213l0.001-0.003c-0.030 0.066-0.069 0.122-0.116 0.17l0-0c-0.048 0.054-0.102 0.102-0.17 0.15l-0.163 0.123 0.477 0.565c0.069-0.128 0.109-0.281 0.109-0.443 0-0.002 0-0.005-0-0.007v0h0.34c0 0.116-0.007 0.225-0.034 0.334-0.033 0.151-0.094 0.283-0.179 0.398l0.002-0.003 0.354 0.422h-0.463l-0.136-0.163c-0.082 0.054-0.163 0.102-0.252 0.136-0.107 0.038-0.231 0.060-0.359 0.060-0.155 0-0.303-0.032-0.438-0.090l0.007 0.003c-0.113-0.056-0.206-0.14-0.271-0.242l-0.002-0.003c-0.059-0.097-0.094-0.214-0.094-0.339 0-0.099 0.022-0.194 0.061-0.278l-0.002 0.004c0.041-0.068 0.095-0.143 0.163-0.204 0.068-0.068 0.136-0.123 0.225-0.184zM11.418 30.89l-0.048 0.034c-0.053 0.039-0.098 0.084-0.135 0.134l-0.001 0.002c-0.041 0.063-0.066 0.139-0.066 0.222 0 0.068 0.017 0.132 0.046 0.189l-0.001-0.002c0.034 0.061 0.075 0.109 0.136 0.136 0.061 0.041 0.136 0.054 0.218 0.054 0.001 0 0.002 0 0.003 0 0.146 0 0.281-0.051 0.386-0.137l-0.001 0.001-0.538-0.633zM11.513 30.448l0.15-0.102c0.059-0.037 0.109-0.082 0.149-0.135l0.001-0.001c0.030-0.046 0.048-0.102 0.048-0.162 0-0.003-0-0.006-0-0.008v0c-0.004-0.129-0.109-0.232-0.238-0.232-0.005 0-0.010 0-0.014 0l0.001-0c-0.003-0-0.006-0-0.009-0-0.098 0-0.183 0.058-0.222 0.142l-0.001 0.002c-0.020 0.042-0.031 0.091-0.031 0.143 0 0.057 0.014 0.111 0.039 0.159l-0.001-0.002 0.102 0.163 0.027 0.034zM15.748 31.156h-0.409c-0.010 0.101-0.039 0.193-0.084 0.276l0.002-0.004c-0.038 0.072-0.097 0.128-0.168 0.162l-0.002 0.001c-0.076 0.035-0.164 0.055-0.257 0.055-0.010 0-0.020-0-0.030-0.001l0.001 0c-0.003 0-0.006 0-0.009 0-0.089 0-0.173-0.023-0.245-0.063l0.003 0.001c-0.070-0.040-0.127-0.095-0.169-0.161l-0.001-0.002c-0.045-0.072-0.081-0.157-0.101-0.246l-0.001-0.005c-0.020-0.102-0.027-0.211-0.027-0.334v-0.197c0-0.129 0.007-0.245 0.034-0.34 0.020-0.102 0.061-0.191 0.109-0.259s0.102-0.116 0.177-0.157c0.066-0.030 0.143-0.048 0.224-0.048 0.008 0 0.015 0 0.022 0l-0.001-0c0.116 0 0.211 0.020 0.286 0.054 0.068 0.041 0.123 0.095 0.163 0.17 0.034 0.075 0.061 0.163 0.068 0.272h0.422c-0.020-0.163-0.068-0.306-0.136-0.436-0.075-0.123-0.177-0.218-0.313-0.293-0.131-0.065-0.284-0.103-0.447-0.103-0.015 0-0.030 0-0.045 0.001l0.002-0c-0.15 0-0.286 0.020-0.409 0.075s-0.225 0.136-0.313 0.232c-0.082 0.102-0.15 0.225-0.197 0.361s-0.068 0.3-0.068 0.477v0.204c0 0.17 0.020 0.327 0.068 0.463 0.048 0.143 0.109 0.266 0.197 0.361 0.163 0.192 0.406 0.314 0.676 0.314 0.011 0 0.023-0 0.034-0.001l-0.002 0c0.197 0 0.361-0.034 0.497-0.109 0.136-0.068 0.245-0.17 0.32-0.293 0.068-0.123 0.116-0.266 0.136-0.422zM18.063 30.802v-0.136c0-0.177-0.027-0.34-0.075-0.49-0.048-0.136-0.116-0.272-0.204-0.368-0.086-0.099-0.193-0.177-0.314-0.229l-0.006-0.002c-0.117-0.052-0.253-0.082-0.396-0.082-0.004 0-0.009 0-0.013 0h0.001c-0.15 0-0.286 0.027-0.409 0.082-0.123 0.048-0.225 0.129-0.313 0.232s-0.163 0.225-0.204 0.368c-0.054 0.15-0.075 0.313-0.075 0.49v0.136c0 0.184 0.020 0.34 0.068 0.49 0.054 0.15 0.123 0.272 0.211 0.374 0.168 0.193 0.414 0.314 0.689 0.314 0.012 0 0.023-0 0.035-0.001l-0.002 0c0.15 0 0.286-0.027 0.409-0.082 0.129-0.054 0.232-0.136 0.32-0.232 0.088-0.102 0.157-0.225 0.204-0.374 0.048-0.143 0.068-0.306 0.068-0.49zM17.641 30.666v0.136c0 0.136-0.014 0.252-0.041 0.361-0.020 0.102-0.061 0.191-0.109 0.259s-0.109 0.124-0.181 0.162l-0.003 0.001c-0.070 0.034-0.152 0.055-0.239 0.055-0.004 0-0.009-0-0.013-0h0.001c-0.002 0-0.005 0-0.008 0-0.086 0-0.168-0.020-0.241-0.056l0.003 0.001c-0.074-0.040-0.136-0.095-0.183-0.162l-0.001-0.002c-0.048-0.068-0.088-0.157-0.116-0.259-0.026-0.103-0.041-0.221-0.041-0.343 0-0.006 0-0.012 0-0.019v0.001-0.136c0-0.136 0.014-0.252 0.041-0.361 0.027-0.102 0.068-0.191 0.116-0.259s0.109-0.123 0.184-0.157c0.068-0.041 0.15-0.054 0.245-0.054 0.002-0 0.005-0 0.008-0 0.086 0 0.168 0.020 0.241 0.056l-0.003-0.001c0.075 0.034 0.136 0.088 0.184 0.157 0.054 0.068 0.095 0.157 0.116 0.259 0.027 0.109 0.041 0.225 0.041 0.361z"></path>
</symbol>
<symbol id="icon-forth" viewBox="0 0 66 32">
<path fill="#8e8f99" style="fill: var(--color4, #8e8f99)" d="M10.209 9.772c-1.865 0-3.372 1.358-3.372 3.044 0 1.678 1.506 3.036 3.372 3.036 1.858 0 3.372-1.358 3.372-3.044 0-1.678-1.514-3.044-3.372-3.044zM35.091 8.796c0-2.326-1.030-4.566-2.864-6.213-1.813-1.604-4.211-2.584-6.838-2.584-0.019 0-0.038 0-0.056 0h0.003c-2.583 0-5.065 0.937-6.892 2.576-1.736 1.527-2.834 3.742-2.864 6.215l-0 0.005v12.862s19.512-1.959 19.512-12.855zM0 25.873c0.020 1.725 0.783 3.268 1.984 4.326l0.006 0.006c1.262 1.115 2.931 1.795 4.758 1.795 0.015 0 0.029-0 0.044-0h-0.002c1.795 0 3.52-0.648 4.792-1.795 1.208-1.061 1.973-2.601 1.998-4.32l0-0.004v-8.952s-13.581 1.366-13.581 8.944zM6.79 27.481c-0.351 0-0.702-0.094-0.991-0.273-0.285-0.17-0.51-0.415-0.651-0.708l-0.004-0.010c-0.086-0.18-0.136-0.392-0.136-0.615 0-0.111 0.012-0.22 0.036-0.324l-0.002 0.010c0.078-0.329 0.252-0.609 0.49-0.818l0.002-0.002c0.25-0.226 0.562-0.375 0.905-0.437 0.351-0.062 0.702-0.031 1.030 0.094 0.328 0.117 0.601 0.328 0.796 0.585 0.188 0.247 0.301 0.559 0.301 0.898 0 0.451-0.201 0.856-0.518 1.129l-0.002 0.002c-0.156 0.156-0.359 0.273-0.578 0.351-0.211 0.078-0.445 0.125-0.679 0.125v-0.008zM19.2 24.601v3.325h-0.679v-3.333h0.687zM20.527 26.021v0.531h-1.506v-0.531h1.514zM20.691 24.593v0.546h-1.67v-0.546h1.67zM23.828 26.185v0.156c0 0.25-0.039 0.484-0.109 0.679-0.062 0.203-0.156 0.375-0.289 0.515-0.125 0.14-0.273 0.25-0.445 0.328s-0.367 0.109-0.578 0.109c-0.016 0.001-0.035 0.001-0.055 0.001-0.385 0-0.731-0.169-0.967-0.437l-0.001-0.001c-0.125-0.14-0.219-0.312-0.289-0.515-0.069-0.2-0.109-0.43-0.109-0.67 0-0.003 0-0.006 0-0.010v0-0.156c0-0.258 0.039-0.484 0.109-0.679 0.062-0.203 0.156-0.375 0.289-0.515 0.125-0.148 0.273-0.25 0.445-0.328s0.367-0.109 0.578-0.109 0.398 0.031 0.57 0.109c0.18 0.078 0.328 0.18 0.453 0.328 0.125 0.14 0.219 0.312 0.289 0.515 0.078 0.195 0.109 0.421 0.109 0.679zM23.126 26.341v-0.156c0-0.18-0.008-0.336-0.039-0.468-0.027-0.13-0.076-0.245-0.143-0.347l0.002 0.004c-0.11-0.166-0.297-0.274-0.509-0.274-0.013 0-0.026 0-0.039 0.001l0.002-0c-0.007-0-0.014-0-0.022-0-0.214 0-0.403 0.108-0.515 0.271l-0.001 0.002c-0.055 0.094-0.101 0.203-0.133 0.336-0.031 0.14-0.047 0.297-0.047 0.468v0.164c0 0.18 0.016 0.328 0.047 0.468 0.031 0.133 0.078 0.25 0.14 0.336 0.070 0.094 0.14 0.164 0.234 0.211 0.086 0.047 0.187 0.078 0.312 0.078 0.109 0 0.211-0.031 0.304-0.078 0.093-0.051 0.169-0.122 0.225-0.208l0.001-0.002c0.062-0.086 0.109-0.203 0.14-0.336 0.031-0.14 0.047-0.297 0.047-0.468zM26.053 27.052c0-0.004 0-0.009 0-0.014 0-0.051-0.009-0.1-0.025-0.145l0.001 0.003c-0.022-0.054-0.056-0.099-0.101-0.132l-0.001-0.001-0.195-0.125c-0.086-0.039-0.195-0.078-0.336-0.117l-0.429-0.164c-0.137-0.063-0.255-0.136-0.363-0.221l0.004 0.003c-0.101-0.078-0.18-0.18-0.234-0.281-0.059-0.107-0.094-0.235-0.094-0.371 0-0.004 0-0.008 0-0.012v0.001c0-0.001 0-0.003 0-0.004 0-0.136 0.035-0.264 0.096-0.375l-0.002 0.004c0.062-0.117 0.148-0.211 0.258-0.297 0.109-0.078 0.234-0.14 0.39-0.187 0.14-0.040 0.301-0.063 0.468-0.063 0.242 0 0.473 0.049 0.683 0.138l-0.012-0.004c0.18 0.086 0.32 0.203 0.421 0.359s0.156 0.328 0.156 0.531h-0.687c0-0.003 0-0.007 0-0.012 0-0.090-0.023-0.175-0.064-0.249l0.001 0.003c-0.042-0.074-0.103-0.133-0.177-0.171l-0.002-0.001c-0.086-0.044-0.188-0.070-0.296-0.070-0.006 0-0.012 0-0.017 0l0.001-0c-0.005-0-0.011-0-0.017-0-0.098 0-0.192 0.020-0.277 0.057l0.005-0.002c-0.075 0.031-0.136 0.082-0.179 0.147l-0.001 0.001c-0.039 0.056-0.062 0.125-0.062 0.2 0 0.001 0 0.002 0 0.003v-0c0 0.055 0.016 0.101 0.039 0.156l0.133 0.125c0.139 0.079 0.301 0.153 0.471 0.212l0.021 0.006c0.18 0.047 0.343 0.109 0.476 0.18 0.14 0.070 0.258 0.148 0.351 0.234 0.173 0.158 0.281 0.384 0.281 0.635 0 0.007-0 0.014-0 0.021l0-0.001c0 0.14-0.031 0.273-0.078 0.39-0.062 0.109-0.148 0.211-0.25 0.289-0.109 0.078-0.234 0.14-0.39 0.18-0.139 0.038-0.299 0.059-0.464 0.059-0.35 0-0.678-0.097-0.957-0.267l0.008 0.005c-0.133-0.086-0.234-0.203-0.312-0.336-0.078-0.14-0.117-0.304-0.117-0.492h0.687c0 0.109 0.016 0.195 0.047 0.265 0.039 0.078 0.078 0.133 0.14 0.172 0.055 0.047 0.125 0.078 0.211 0.101 0.078 0.016 0.172 0.031 0.265 0.031 0.117 0 0.219-0.023 0.297-0.055 0.134-0.054 0.226-0.183 0.226-0.334 0-0.003-0-0.007-0-0.010v0zM28.691 24.601v3.325h-0.679v-3.333h0.679zM29.721 24.601v0.531h-2.716v-0.539h2.716zM32.343 27.395v0.531h-1.772v-0.531h1.772zM30.798 24.593v3.333h-0.687v-3.333h0.687zM32.109 25.951v0.523h-1.538v-0.523h1.538zM32.343 24.601v0.531h-1.772v-0.539h1.772zM32.741 24.601h1.249c0.25 0 0.468 0.031 0.648 0.109 0.187 0.078 0.328 0.187 0.429 0.343 0.101 0.148 0.148 0.328 0.148 0.546 0 0.18-0.031 0.336-0.094 0.46-0.055 0.125-0.141 0.234-0.25 0.312-0.109 0.086-0.234 0.156-0.39 0.211l-0.211 0.109h-1.077v-0.531h0.796c0.003 0 0.006 0 0.009 0 0.105 0 0.204-0.026 0.291-0.072l-0.003 0.002c0.078-0.039 0.141-0.101 0.179-0.172 0.039-0.074 0.063-0.161 0.063-0.254 0-0.004-0-0.008-0-0.012v0.001c0-0.004 0-0.009 0-0.014 0-0.097-0.023-0.189-0.064-0.27l0.002 0.003c-0.039-0.078-0.101-0.14-0.177-0.178l-0.002-0.001c-0.083-0.040-0.179-0.063-0.282-0.063-0.008 0-0.016 0-0.024 0l0.001-0h-0.546v2.794h-0.695v-3.333zM34.607 27.926l-0.765-1.483h0.726l0.773 1.452v0.031h-0.734zM38.205 26.739h-0.851v-0.539h0.859c0.007 0 0.014 0 0.022 0 0.105 0 0.205-0.023 0.295-0.065l-0.004 0.002c0.078-0.039 0.141-0.101 0.179-0.18s0.062-0.164 0.062-0.265c-0.001-0.099-0.024-0.193-0.064-0.277l0.002 0.004c-0.038-0.088-0.1-0.16-0.178-0.21l-0.002-0.001c-0.085-0.049-0.186-0.078-0.295-0.078-0.006 0-0.012 0-0.019 0l0.001-0h-0.624v2.794h-0.679v-3.333h1.296c0.265 0 0.484 0.055 0.671 0.148 0.345 0.167 0.578 0.514 0.578 0.916 0 0.013-0 0.025-0.001 0.038l0-0.002c0 0.211-0.047 0.39-0.148 0.554-0.101 0.156-0.242 0.281-0.429 0.367-0.187 0.078-0.406 0.125-0.671 0.125zM42.162 27.395v0.531h-1.772v-0.531h1.772zM40.617 24.593v3.333h-0.687v-3.333h0.687zM41.928 25.951v0.523h-1.538v-0.523h1.538zM42.162 24.601v0.531h-1.772v-0.539h1.772zM44.098 24.601v3.325h-0.687v-3.333h0.687zM45.12 24.601v0.531h-2.716v-0.539h2.716zM47.742 27.395v0.531h-1.772v-0.531h1.772zM46.205 24.585v3.333h-0.687v-3.333h0.687zM47.524 25.943v0.523h-1.553v-0.523h1.545zM47.758 24.593v0.531h-1.787v-0.539h1.772zM48.148 24.593h1.249c0.25 0 0.468 0.031 0.656 0.109 0.179 0.078 0.328 0.187 0.421 0.343 0.101 0.148 0.156 0.328 0.156 0.546 0 0.18-0.039 0.336-0.094 0.46-0.062 0.125-0.148 0.234-0.258 0.312-0.109 0.086-0.234 0.156-0.382 0.211l-0.219 0.109h-1.077v-0.531h0.796c0.005 0 0.011 0 0.016 0 0.105 0 0.205-0.026 0.292-0.072l-0.003 0.002c0.078-0.039 0.141-0.101 0.179-0.172 0.039-0.074 0.063-0.161 0.063-0.254 0-0.004-0-0.008-0-0.012v0.001c0-0.004 0-0.009 0-0.014 0-0.097-0.023-0.189-0.064-0.27l0.002 0.003c-0.039-0.078-0.101-0.14-0.177-0.178l-0.002-0.001c-0.083-0.040-0.18-0.063-0.282-0.063-0.010 0-0.021 0-0.031 0.001l0.001-0h-0.546v2.794h-0.687v-3.333zM50.021 27.918l-0.765-1.483h0.726l0.765 1.452v0.031h-0.734zM52.886 27.044c0-0.004 0-0.009 0-0.014 0-0.051-0.009-0.1-0.025-0.145l0.001 0.003c-0.022-0.054-0.056-0.099-0.101-0.132l-0.001-0.001-0.195-0.125c-0.086-0.039-0.195-0.078-0.336-0.117l-0.429-0.164c-0.134-0.064-0.249-0.136-0.355-0.221l0.003 0.003c-0.2-0.143-0.328-0.375-0.328-0.636 0-0.010 0-0.019 0.001-0.029l-0 0.001c-0-0.005-0-0.012-0-0.018 0-0.13 0.032-0.253 0.088-0.361l-0.002 0.004c0.062-0.117 0.148-0.211 0.258-0.297 0.109-0.078 0.234-0.14 0.39-0.187 0.14-0.040 0.301-0.063 0.468-0.063 0.242 0 0.473 0.049 0.683 0.138l-0.012-0.004c0.179 0.086 0.32 0.203 0.421 0.359s0.156 0.328 0.156 0.531h-0.687c0-0.008 0.001-0.017 0.001-0.025 0-0.085-0.020-0.165-0.057-0.235l0.001 0.003c-0.044-0.075-0.108-0.134-0.185-0.171l-0.003-0.001c-0.086-0.044-0.188-0.070-0.296-0.070-0.006 0-0.012 0-0.017 0l0.001-0c-0.005-0-0.011-0-0.017-0-0.098 0-0.192 0.020-0.277 0.057l0.005-0.002c-0.075 0.031-0.136 0.082-0.179 0.147l-0.001 0.001c-0.039 0.056-0.062 0.125-0.062 0.2 0 0.001 0 0.002 0 0.003v-0c0 0.055 0.016 0.101 0.047 0.156 0.023 0.039 0.070 0.078 0.125 0.125 0.139 0.079 0.301 0.153 0.471 0.212l0.021 0.006c0.179 0.047 0.343 0.109 0.476 0.18 0.141 0.070 0.258 0.148 0.351 0.234 0.173 0.158 0.281 0.384 0.281 0.635 0 0.007-0 0.014-0 0.021l0-0.001c0 0.14-0.031 0.273-0.078 0.39-0.062 0.109-0.141 0.211-0.25 0.289s-0.234 0.14-0.39 0.18c-0.139 0.038-0.299 0.059-0.464 0.059-0.35 0-0.678-0.097-0.957-0.267l0.008 0.005c-0.133-0.086-0.234-0.203-0.312-0.336-0.078-0.14-0.117-0.304-0.117-0.492h0.687c0 0.109 0.016 0.195 0.055 0.265 0.031 0.078 0.078 0.133 0.133 0.172 0.055 0.047 0.125 0.078 0.211 0.101 0.078 0.016 0.172 0.031 0.265 0.031 0.125 0 0.219-0.023 0.297-0.055 0.138-0.052 0.234-0.183 0.234-0.337 0-0.002-0-0.005-0-0.007v0z"></path>
</symbol>
<symbol id="icon-second" viewBox="0 0 25 32">
<path fill="#8e8f99" style="fill: var(--color4, #8e8f99)" d="M10.529 1.803h-0.080l-0.388-0.012h-0.283c-0.018-0-0.039-0-0.060-0-0.26 0-0.519 0.007-0.776 0.020l0.036-0.002c-2.24 0.123-4.431 0.689-6.468 1.649l-0.265 0.129v13.625l0.622-0.209c1.995-0.718 4.297-1.147 6.695-1.175l0.013-0v1.791l-0.652 0.018h-0.049c-3.103 0.172-5.971 1.029-8.503 2.421l0.103-0.052v-17.483c1.38-0.817 2.977-1.482 4.667-1.911l0.127-0.027c1.352-0.364 2.905-0.577 4.506-0.585l0.005-0h0.265c1.123 0.004 2.21 0.149 3.247 0.42l-0.090-0.020v1.766c-0.627-0.155-1.371-0.273-2.132-0.33l-0.046-0.003h-0.043c-0.154-0.012-0.308-0.031-0.449-0.031zM13.631 3.606c0.348 0.022 0.754 0.035 1.163 0.035 1.701 0 3.351-0.219 4.922-0.631l-0.135 0.030c1.734-0.442 3.254-1.051 4.667-1.829l-0.101 0.051v17.163c-1.38 0.82-2.976 1.489-4.667 1.923l-0.127 0.028c-1.477 0.375-2.991 0.572-4.511 0.578-0.031 0-0.068 0-0.105 0-1.18 0-2.325-0.148-3.419-0.427l0.095 0.021v-17.274c0.639 0.156 1.396 0.274 2.17 0.33l0.046 0.003zM22.369 3.742l-0.622 0.209c-2.067 0.744-4.451 1.174-6.936 1.174-0.389 0-0.776-0.011-1.16-0.031l0.054 0.002-0.505-0.031v14.012l0.431 0.037c0.356 0.027 0.771 0.043 1.19 0.043 1.458 0 2.871-0.189 4.217-0.542l-0.115 0.026c1.218-0.313 2.275-0.707 3.277-1.195l-0.101 0.045 0.271-0.123v-13.625z"></path>
<path fill="#8e8f99" style="fill: var(--color4, #8e8f99)" d="M1.686 25.975c-0.168-0.171-0.401-0.278-0.66-0.278-0.012 0-0.025 0-0.037 0.001l0.002-0c-0.135 0-0.271 0.025-0.4 0.074-0.346 0.139-0.586 0.471-0.586 0.859 0 0.016 0 0.032 0.001 0.048l-0-0.002v2.338c0 0.16 0.025 0.326 0.092 0.474 0.062 0.123 0.135 0.228 0.234 0.314 0.092 0.080 0.203 0.135 0.32 0.166s0.234 0.049 0.351 0.049c0.536-0.010 0.966-0.447 0.966-0.984 0-0 0-0 0-0v0-0.258h-0.615v0.203c0.006 0.074 0 0.148-0.031 0.209-0.020 0.053-0.049 0.098-0.086 0.135v0c-0.069 0.053-0.157 0.085-0.252 0.086h-0c-0.012 0.002-0.027 0.003-0.041 0.003-0.102 0-0.192-0.049-0.248-0.125l-0.001-0.001c-0.054-0.084-0.086-0.187-0.086-0.297 0-0.006 0-0.012 0-0.018l-0 0.001v-2.178c0-0.123 0.025-0.24 0.080-0.345 0.055-0.087 0.151-0.144 0.26-0.144 0.012 0 0.025 0.001 0.037 0.002l-0.001-0c0.003-0 0.007-0 0.011-0 0.106 0 0.2 0.050 0.26 0.129l0.001 0.001c0.065 0.083 0.105 0.189 0.105 0.303 0 0.002 0 0.003-0 0.004v-0 0.209h0.603v-0.24c0-0.002 0-0.005 0-0.008 0-0.281-0.105-0.537-0.278-0.732l0.001 0.001zM5.311 25.951c-0.187-0.157-0.431-0.252-0.697-0.252-0.129 0-0.254 0.023-0.369 0.064l0.008-0.002c-0.123 0.043-0.228 0.105-0.32 0.185-0.105 0.098-0.185 0.209-0.24 0.332-0.062 0.142-0.092 0.295-0.086 0.455v2.234c-0.006 0.16 0.025 0.314 0.086 0.462 0.055 0.123 0.135 0.228 0.24 0.308 0.092 0.092 0.197 0.16 0.32 0.203 0.108 0.040 0.233 0.063 0.363 0.063s0.255-0.023 0.37-0.066l-0.007 0.002c0.38-0.131 0.648-0.486 0.648-0.904 0-0.022-0.001-0.044-0.002-0.066l0 0.003v-2.24c0.001-0.013 0.001-0.028 0.001-0.043 0-0.291-0.123-0.553-0.32-0.738l-0.001-0.001zM5.028 28.966c0.001 0.011 0.002 0.023 0.002 0.036 0 0.114-0.048 0.217-0.125 0.29l-0 0c-0.077 0.064-0.177 0.103-0.286 0.103s-0.209-0.039-0.287-0.104l0.001 0.001c-0.077-0.073-0.125-0.176-0.125-0.29 0-0.013 0.001-0.025 0.002-0.038l-0 0.002v-2.234c-0.001-0.011-0.002-0.023-0.002-0.036 0-0.114 0.048-0.217 0.125-0.29l0-0c0.077-0.064 0.177-0.103 0.286-0.103s0.209 0.039 0.287 0.104l-0.001-0.001c0.077 0.073 0.125 0.176 0.125 0.29 0 0.013-0.001 0.025-0.002 0.038l0-0.002v2.234zM10.074 29.969v-4.246h-0.591l-0.769 2.246h-0.012l-0.775-2.246h-0.578v4.24h0.603v-2.585h0.012l0.591 1.828h0.308l0.597-1.822h0.006v2.578h0.609zM13.514 26.031c-0.092-0.111-0.209-0.185-0.345-0.234-0.126-0.043-0.27-0.068-0.421-0.068-0.006 0-0.011 0-0.017 0h-0.898v4.24h0.603v-1.662h0.308c0.191 0.012 0.375-0.025 0.548-0.111 0.244-0.153 0.417-0.4 0.467-0.689l0.001-0.006c0.024-0.143 0.037-0.307 0.037-0.474 0-0.216-0.023-0.426-0.066-0.629l0.004 0.020c-0.042-0.154-0.119-0.287-0.222-0.394l0 0zM13.206 27.323c-0.006 0.074-0.025 0.148-0.062 0.215-0.037 0.062-0.086 0.123-0.154 0.148-0.078 0.039-0.171 0.062-0.269 0.062-0.005 0-0.010-0-0.015-0h-0.276v-1.446h0.308c0.098 0 0.185 0.012 0.277 0.055 0.062 0.031 0.111 0.086 0.142 0.154 0.030 0.069 0.048 0.149 0.049 0.233v0.579zM16.369 25.729h-0.492l-0.923 4.24h0.603l0.178-0.911h0.818l0.185 0.911h0.597l-0.954-4.24zM15.815 28.48l0.302-1.538h0.006l0.295 1.538h-0.603zM20.277 28.283h-0.012l-0.911-2.554h-0.578v4.24h0.603v-2.548h0.012l0.917 2.548h0.566v-4.246h-0.603v2.554zM23.969 25.729l-0.492 1.686h-0.006l-0.492-1.686h-0.634l0.831 2.449v1.785h0.603v-1.785l0.831-2.449h-0.64zM0 31.163h0.289v0.818h0.203v-0.818h0.289v-0.166h-0.782v0.166zM2.449 30.997l-0.382 0.985h0.209l0.080-0.222h0.394l0.080 0.222h0.215l-0.388-0.985h-0.209zM2.418 31.594l0.129-0.369 0.135 0.369h-0.265zM4.862 31.618h0.234v0.123c-0.063 0.052-0.145 0.085-0.234 0.086h-0c-0.005 0-0.011 0.001-0.017 0.001-0.078 0-0.147-0.036-0.192-0.092l-0-0c-0.047-0.066-0.074-0.148-0.074-0.236 0-0.008 0-0.016 0.001-0.023l-0 0.001c0-0.215 0.092-0.326 0.283-0.326 0.006-0.001 0.013-0.001 0.020-0.001 0.096 0 0.177 0.065 0.202 0.153l0 0.001 0.197-0.037c-0.043-0.191-0.185-0.289-0.418-0.289-0.006-0-0.012-0-0.019-0-0.125 0-0.24 0.047-0.327 0.124l0-0c-0.088 0.087-0.143 0.208-0.143 0.342 0 0.014 0.001 0.028 0.002 0.041l-0-0.002c0 0.135 0.037 0.271 0.123 0.369 0.088 0.092 0.211 0.149 0.347 0.149 0.010 0 0.020-0 0.030-0.001l-0.001 0c0.154 0 0.308-0.055 0.418-0.16v-0.388h-0.431v0.166zM7.335 30.997h-0.197v0.985h0.689v-0.166h-0.492v-0.818zM9.428 30.997h-0.203v0.985h0.203v-0.985zM11.471 31.655l-0.406-0.658h-0.191v0.985h0.185v-0.64l0.394 0.64h0.197v-0.985h-0.185v0.658zM13.317 31.551h0.492v-0.166h-0.492v-0.222h0.523v-0.166h-0.726v0.985h0.751v-0.166h-0.554v-0.265zM17.791 31.385h-0.388v-0.388h-0.197v0.985h0.197v-0.431h0.388v0.431h0.197v-0.985h-0.197v0.388zM19.649 31.551h0.492v-0.166h-0.492v-0.222h0.529v-0.166h-0.726v0.985h0.745v-0.166h-0.548v-0.265zM22.166 31.551c0.172-0.031 0.258-0.123 0.258-0.277 0.001-0.008 0.002-0.018 0.002-0.028 0-0.076-0.037-0.144-0.093-0.187l-0.001-0c-0.074-0.039-0.162-0.063-0.256-0.063-0.012 0-0.023 0-0.035 0.001l0.002-0h-0.418v0.985h0.197v-0.412h0.037c0.043 0 0.086 0.006 0.123 0.025 0.031 0.018 0.062 0.043 0.074 0.074l0.215 0.308h0.234l-0.123-0.185c-0.049-0.098-0.123-0.185-0.215-0.246zM21.969 31.415h-0.148v-0.246h0.154c0.068-0.006 0.142 0 0.203 0.018 0.031 0.023 0.051 0.059 0.051 0.099 0 0.043-0.022 0.081-0.056 0.103l-0 0c-0.050 0.016-0.108 0.026-0.168 0.026-0.012 0-0.025-0-0.037-0.001l0.002 0zM24.068 31.551h0.492v-0.166h-0.492v-0.222h0.529v-0.166h-0.726v0.985h0.745v-0.166h-0.548v-0.265z"></path>
</symbol>
<symbol id="icon-sixth" viewBox="0 0 67 32">
<path fill="#8e8f99" style="fill: var(--color4, #8e8f99)" d="M33.799 15.246c-0.269-0.349-0.431-0.793-0.431-1.274 0-0.050 0.002-0.099 0.005-0.147l-0 0.007v-2.055c0-0.626 0.142-1.102 0.427-1.436 0.284-0.327 0.775-0.484 1.472-0.484 0.654 0 1.116 0.142 1.387 0.412 0.299 0.356 0.448 0.796 0.412 1.23v0.484h-1.159v-0.491c0-0.156-0.007-0.32-0.036-0.476-0.019-0.115-0.078-0.214-0.163-0.284l-0.001-0.001c-0.104-0.068-0.231-0.109-0.368-0.109-0.021 0-0.041 0.001-0.061 0.003l0.003-0c-0.017-0.002-0.038-0.002-0.058-0.002-0.145 0-0.28 0.043-0.392 0.118l0.003-0.002c-0.096 0.078-0.164 0.186-0.191 0.309l-0.001 0.004c-0.036 0.171-0.050 0.341-0.043 0.505v2.496c-0.021 0.242 0.028 0.484 0.142 0.697 0.064 0.071 0.142 0.142 0.242 0.171 0.070 0.029 0.152 0.046 0.237 0.046 0.022 0 0.043-0.001 0.064-0.003l-0.003 0c0.014 0.001 0.030 0.002 0.046 0.002 0.137 0 0.264-0.043 0.369-0.117l-0.002 0.001c0.092-0.075 0.157-0.182 0.177-0.303l0-0.003c0.028-0.164 0.036-0.327 0.036-0.498v-0.505h1.166v0.462c0.036 0.455-0.107 0.91-0.405 1.287-0.263 0.306-0.725 0.462-1.394 0.462-0.676 0-1.188-0.164-1.472-0.498zM38.67 15.268c-0.299-0.32-0.448-0.782-0.448-1.401v-2.162c0-0.604 0.149-1.067 0.448-1.38 0.292-0.32 0.782-0.469 1.479-0.469 0.69 0 1.18 0.156 1.472 0.469 0.299 0.313 0.448 0.775 0.448 1.38v2.162c0 0.612-0.149 1.081-0.448 1.401-0.306 0.32-0.789 0.484-1.472 0.484s-1.18-0.164-1.479-0.484zM40.697 14.748c0.1-0.199 0.149-0.42 0.142-0.64v-2.638c0.007-0.213-0.036-0.434-0.142-0.633-0.063-0.076-0.145-0.135-0.238-0.169l-0.004-0.001c-0.067-0.026-0.144-0.041-0.225-0.041-0.029 0-0.057 0.002-0.084 0.005l0.003-0c-0.024-0.003-0.051-0.005-0.079-0.005-0.081 0-0.159 0.015-0.231 0.042l0.005-0.002c-0.097 0.036-0.179 0.095-0.241 0.17l-0.001 0.001c-0.107 0.199-0.156 0.412-0.142 0.633v2.652c-0.014 0.22 0.036 0.441 0.142 0.64 0.071 0.071 0.149 0.121 0.242 0.156 0.090 0.036 0.193 0.057 0.302 0.057s0.213-0.021 0.308-0.059l-0.006 0.002c0.092-0.036 0.178-0.085 0.249-0.156v-0.014zM43.477 9.92h1.259l0.946 3.982 0.967-3.982h1.223l0.128 5.753h-0.91l-0.092-4.004-0.939 4.004h-0.725l-0.967-4.018-0.092 4.018h-0.91l0.114-5.76zM49.408 9.92h1.963c1.131 0 1.692 0.54 1.692 1.636 0 1.038-0.59 1.564-1.778 1.564h-0.676v2.553h-1.209l0.007-5.76zM51.086 12.373c0.121 0.014 0.242 0 0.356-0.028s0.22-0.078 0.313-0.149c0.135-0.199 0.199-0.427 0.171-0.654 0-0.171-0.014-0.348-0.057-0.519-0.020-0.061-0.052-0.113-0.093-0.157l0 0c-0.042-0.046-0.091-0.084-0.147-0.112l-0.003-0.001c-0.171-0.071-0.356-0.107-0.54-0.092h-0.469v1.714h0.469zM54.812 9.92h1.301l1.33 5.753h-1.124l-0.263-1.33h-1.166l-0.27 1.33h-1.138l1.33-5.76zM55.922 13.675l-0.455-2.418-0.448 2.418h0.903zM58.524 9.92h0.846l1.621 3.278v-3.278h1.003v5.753h-0.804l-1.636-3.428v3.428h-1.031v-5.76zM64.356 13.476l-1.351-3.556h1.138l0.818 2.29 0.775-2.283h1.109l-1.33 3.556v2.19h-1.166v-2.197zM35.669 18.183v0.306h-0.996v2.332h-0.405v-2.332h-0.996v-0.306h2.396zM38.763 20.821h-0.32c-0.003 0-0.006 0-0.010 0-0.028 0-0.054-0.008-0.076-0.022l0.001 0c-0.025-0.015-0.045-0.037-0.057-0.063l-0-0.001-0.284-0.626h-1.372l-0.284 0.626c-0.009 0.028-0.023 0.052-0.043 0.071v0c-0.023 0.018-0.053 0.029-0.086 0.029-0.002 0-0.005-0-0.007-0h-0.32l1.209-2.638h0.427l1.223 2.631zM36.757 19.847h1.145l-0.484-1.074c-0.032-0.068-0.063-0.15-0.089-0.235l-0.004-0.014-0.043 0.142-0.043 0.107-0.484 1.067zM40.853 20.565h0.228c0.133-0.011 0.256-0.038 0.372-0.081l-0.010 0.003 0.164-0.071v-0.59h-0.519c-0.011-0.005-0.021-0.013-0.028-0.021l-0-0c-0.009-0.005-0.016-0.013-0.021-0.021l-0-0v-0.228h0.939v1.010c-0.233 0.147-0.512 0.245-0.811 0.27l-0.007 0c-0.114 0.014-0.235 0.021-0.356 0.021-0.206 0-0.412-0.036-0.604-0.1-0.186-0.065-0.347-0.16-0.486-0.279l0.002 0.002c-0.13-0.115-0.235-0.255-0.31-0.412l-0.003-0.008c-0.071-0.171-0.114-0.356-0.114-0.548-0.001-0.013-0.001-0.029-0.001-0.045 0-0.369 0.165-0.699 0.426-0.921l0.002-0.001c0.135-0.121 0.299-0.213 0.476-0.277 0.19-0.065 0.408-0.102 0.636-0.102 0.125 0 0.247 0.011 0.365 0.033l-0.012-0.002c0.199 0.029 0.379 0.089 0.542 0.175l-0.009-0.004c0.071 0.043 0.142 0.085 0.213 0.142l-0.121 0.156c-0.011 0.016-0.025 0.028-0.042 0.035l-0.001 0c-0.014 0.008-0.031 0.013-0.049 0.014l-0 0c-0.029-0-0.056-0.008-0.079-0.022l0.001 0c-0.050-0.021-0.090-0.040-0.129-0.061l0.008 0.004c-0.192-0.094-0.419-0.15-0.658-0.15-0.011 0-0.022 0-0.033 0l0.002-0c-0.156-0.007-0.32 0.014-0.469 0.071-0.268 0.085-0.478 0.282-0.581 0.534l-0.002 0.006c-0.107 0.284-0.107 0.583 0 0.875 0.057 0.121 0.142 0.235 0.249 0.327 0.183 0.169 0.428 0.272 0.698 0.272 0.047 0 0.094-0.003 0.14-0.009l-0.005 0.001zM44.708 20.523h1.323v0.299h-1.721v-2.631h0.412l-0.014 2.332zM47.41 20.821h-0.42v-2.631h0.42v2.631zM48.946 18.204c0.028 0 0.050 0.021 0.071 0.043l1.764 1.991v-2.062h0.356v2.645h-0.206c-0.028 0-0.057 0-0.085-0.014-0.028-0.013-0.051-0.029-0.071-0.050l-0-0-1.764-1.991v2.055h-0.348v-2.631h0.213l0.071 0.007zM54.187 18.183v0.292h-1.465v0.875h1.188v0.284h-1.188v0.896h1.465v0.284h-1.892v-2.631h1.892zM10.809 1.892l18.382 4.501v15.787l-18.382-4.501v-15.787zM9.628 0.54v17.906l20.736 5.077v-17.892l-20.736-5.084z"></path>
<path fill="#8e8f99" style="fill: var(--color4, #8e8f99)" d="M20.743 31.836l-20.743-5.099v-17.884l20.743 5.084v17.899z"></path>
<path fill="#8e8f99" style="fill: var(--color4, #8e8f99)" d="M9.97 1.685l18.148 4.452-7.723 6.656-18.14-4.444 7.716-6.663zM9.628 0.548l-9.628 8.306 20.743 5.084 9.621-8.306-20.736-5.084zM21.902 30.827l8.462-7.289-8.462-2.076v9.372z"></path>
</symbol>
<symbol id="icon-third" viewBox="0 0 34 32">
<path fill="#8e8f99" style="fill: var(--color4, #8e8f99)" d="M5.315 31.391l0.039 0.008 0.031 0.023 0.172 0.156c-0.141 0.133-0.304 0.234-0.484 0.312-0.219 0.078-0.453 0.117-0.695 0.109-0.219 0-0.437-0.031-0.64-0.101-0.366-0.121-0.655-0.389-0.801-0.733l-0.003-0.009c-0.072-0.168-0.114-0.363-0.114-0.568 0-0.212 0.045-0.414 0.125-0.596l-0.004 0.009c0.078-0.164 0.187-0.32 0.336-0.453 0.145-0.123 0.317-0.222 0.504-0.286l0.011-0.003c0.196-0.068 0.421-0.107 0.656-0.107 0.226 0 0.443 0.036 0.647 0.104l-0.015-0.004c0.164 0.062 0.328 0.156 0.46 0.258l-0.148 0.172c-0.009 0.012-0.019 0.022-0.031 0.031l-0 0c-0.015 0.010-0.034 0.016-0.055 0.016-0.003 0-0.006-0-0.008-0l0 0c-0.024-0.003-0.045-0.011-0.063-0.024l0 0-0.078-0.039-0.101-0.062c-0.16-0.080-0.348-0.126-0.547-0.126-0.019 0-0.038 0-0.057 0.001l0.003-0c-0.156 0-0.328 0.031-0.476 0.078-0.283 0.089-0.507 0.293-0.622 0.555l-0.002 0.006c-0.055 0.156-0.086 0.312-0.078 0.468-0.001 0.016-0.001 0.035-0.001 0.054 0 0.444 0.285 0.821 0.681 0.959l0.007 0.002c0.133 0.047 0.281 0.078 0.437 0.078l0.265-0.016c0.216-0.023 0.408-0.107 0.564-0.236l-0.002 0.001c0.022-0.022 0.052-0.037 0.085-0.039l0-0zM10.295 30.579c0 0.195-0.039 0.39-0.117 0.57-0.078 0.172-0.18 0.32-0.328 0.445-0.14 0.133-0.312 0.234-0.507 0.297-0.421 0.133-0.89 0.133-1.311 0-0.196-0.069-0.365-0.17-0.509-0.298l0.002 0.001c-0.137-0.121-0.248-0.27-0.324-0.437l-0.003-0.008c-0.156-0.375-0.156-0.78 0-1.147 0.078-0.172 0.187-0.32 0.328-0.453 0.148-0.125 0.312-0.219 0.507-0.281 0.196-0.067 0.421-0.105 0.656-0.105s0.46 0.038 0.67 0.109l-0.015-0.004c0.187 0.062 0.367 0.164 0.507 0.289 0.274 0.243 0.445 0.595 0.445 0.988 0 0.012-0 0.024-0 0.036l0-0.002zM9.842 30.579c0-0.156-0.023-0.312-0.078-0.46-0.106-0.269-0.324-0.474-0.594-0.56l-0.007-0.002c-0.312-0.101-0.648-0.101-0.952 0-0.14 0.047-0.265 0.125-0.367 0.219-0.101 0.101-0.179 0.219-0.234 0.343-0.109 0.297-0.109 0.624 0 0.921 0.105 0.27 0.323 0.475 0.594 0.56l0.007 0.002c0.312 0.094 0.648 0.094 0.952 0 0.273-0.092 0.487-0.296 0.591-0.555l0.002-0.006c0.062-0.148 0.086-0.304 0.078-0.46zM13.69 31.063l0.039 0.101 0.109-0.203 1.101-1.717 0.062-0.047c0.022-0.005 0.046-0.009 0.072-0.009 0.008 0 0.015 0 0.023 0.001l-0.001-0h0.32v2.779h-0.39v-2.224l-1.101 1.733c-0.015 0.027-0.036 0.048-0.062 0.062l-0.001 0c-0.027 0.015-0.059 0.023-0.093 0.023-0 0-0.001 0-0.001 0h-0.062c-0.003 0-0.005 0-0.008 0-0.034 0-0.066-0.009-0.094-0.024l0.001 0c-0.027-0.015-0.048-0.036-0.062-0.062l-0-0.001-1.139-1.748v2.232h-0.375v-2.771h0.328l0.094 0.008c0.023 0.008 0.047 0.031 0.055 0.055l1.124 1.717c0.023 0.023 0.047 0.055 0.062 0.094zM17.826 30.923v1.046h-0.429v-2.779h0.96c0.187 0 0.367 0.016 0.546 0.062 0.133 0.031 0.265 0.086 0.375 0.172 0.094 0.078 0.164 0.164 0.211 0.273 0.055 0.109 0.078 0.234 0.078 0.351 0 0.002 0 0.005 0 0.008 0 0.254-0.122 0.481-0.31 0.623l-0.002 0.001c-0.117 0.086-0.242 0.148-0.39 0.187-0.156 0.047-0.336 0.070-0.515 0.062h-0.523zM17.826 30.626h0.523c0.117 0 0.234-0.016 0.336-0.039 0.093-0.028 0.173-0.071 0.244-0.126l-0.002 0.001c0.12-0.097 0.195-0.243 0.195-0.408 0-0.005-0-0.010-0-0.015v0.001c0.001-0.009 0.001-0.019 0.001-0.029 0-0.069-0.015-0.134-0.041-0.192l0.001 0.003c-0.037-0.078-0.090-0.143-0.155-0.194l-0.001-0.001c-0.144-0.095-0.32-0.151-0.51-0.151-0.024 0-0.048 0.001-0.071 0.003l0.003-0h-0.523v1.147zM23.618 31.969h-0.336c-0.003 0-0.006 0-0.009 0-0.031 0-0.061-0.009-0.086-0.024l0.001 0c-0.023-0.016-0.041-0.037-0.054-0.061l-0-0.001-0.297-0.679h-1.475l-0.297 0.679c-0.013 0.026-0.031 0.047-0.054 0.062l-0.001 0c-0.024 0.015-0.054 0.024-0.086 0.024-0.006 0-0.011-0-0.016-0.001l0.001 0h-0.336l1.28-2.779h0.453l1.303 2.779zM21.487 30.939h1.218l-0.515-1.132c-0.039-0.086-0.070-0.172-0.094-0.265l-0.055 0.148-0.047 0.117-0.507 1.132zM25.483 29.198l0.062 0.055 1.889 2.092v-2.154h0.39v2.779h-0.219c-0.031 0-0.062 0-0.094-0.016-0.027-0.014-0.051-0.032-0.070-0.054l-0-0-1.873-2.092v2.162h-0.39v-2.779h0.226l0.078 0.008zM30.993 30.86v1.108h-0.429v-1.108l-1.194-1.67h0.39c0.001-0 0.002-0 0.004-0 0.030 0 0.059 0.009 0.083 0.024l-0.001-0 0.062 0.062 0.741 1.077c0.047 0.071 0.091 0.153 0.128 0.239l0.004 0.011 0.055-0.117 0.078-0.133 0.734-1.093c0.016-0.021 0.034-0.039 0.054-0.054l0.001-0c0.023-0.015 0.051-0.024 0.081-0.024 0.005 0 0.009 0 0.013 0.001l-0.001-0h0.39l-1.194 1.678zM13.471 24.523l0.57 0.047c2.877-1.081 5.273-2.884 7.044-5.192l0.028-0.037c1.57-2.053 2.515-4.656 2.515-7.479 0-0.076-0.001-0.152-0.002-0.228l0 0.011-3.2-2.732c0.211 0.902 0.332 1.938 0.332 3.002 0 2.046-0.447 3.987-1.249 5.731l0.035-0.085c-1.353 2.897-3.432 5.261-6.008 6.923l-0.064 0.039z"></path>
<path fill="#8e8f99" style="fill: var(--color4, #8e8f99)" d="M12.332 24.39l0.078 0.016c2.935-1.787 5.167-4.285 6.416-7.165 1.249-2.888 1.452-6.025 0.585-9.007l-4.558-3.902c1.842 3.2 2.583 6.79 2.139 10.341-0.526 3.801-2.205 7.139-4.666 9.724l0.007-0.007zM27.809 14.861c-0.78 2.989-2.661 5.69-5.37 7.688-0.796 0.585-1.647 1.116-2.552 1.561 2.273-0.566 4.26-1.554 5.967-2.883l-0.036 0.027c1.63-1.266 2.931-2.877 3.806-4.729l0.034-0.079-1.85-1.584z"></path>
<path fill="#8e8f99" style="fill: var(--color4, #8e8f99)" d="M27.083 14.423l-2.638-2.256c-0.072 2.74-0.989 5.253-2.499 7.302l0.025-0.035c-1.656 2.239-3.828 4.006-6.346 5.142l-0.101 0.041h0.008c0.593 0 1.186-0.023 1.772-0.086 2.502-0.867 4.638-2.238 6.375-4.002l0.002-0.002c1.614-1.64 2.801-3.706 3.376-6.013l0.019-0.090zM12.714 2.693l-3.145-2.693c-2.796 0.905-5.15 2.53-6.919 4.659l-0.020 0.024c-1.611 1.944-2.598 4.456-2.63 7.197l-0 0.007c0.044 3.044 1.249 5.799 3.189 7.849l-0.005-0.005c2.053 2.24 4.917 3.824 8.148 4.519 2.888-3.005 4.574-6.712 4.823-10.591 0.242-3.871-0.96-7.719-3.442-10.966zM34.341 14.010c-0.008-3.38-1.584-6.611-4.371-8.999-2.801-2.327-6.435-3.739-10.398-3.739-0.049 0-0.097 0-0.146 0.001l0.007-0c-1.819 0-3.629 0.289-5.331 0.851l19.239 16.445c0.628-1.338 0.996-2.904 0.999-4.557v-0.001z"></path>
</symbol>
<symbol id="icon-instagram" viewBox="0 0 32 32">
<path fill="#4d5ae5" style="fill: var(--color1, #4d5ae5)" d="M32 16c0 4.418-1.791 8.418-4.686 11.314s-6.895 4.686-11.314 4.686c-4.418 0-8.418-1.791-11.314-4.686s-4.686-6.895-4.686-11.314c0-4.418 1.791-8.418 4.686-11.314s6.895-4.686 11.314-4.686c4.418 0 8.418 1.791 11.314 4.686s4.686 6.895 4.686 11.314z"></path>
<path fill="#f4f4fd" style="fill: var(--color2, #f4f4fd)" d="M22.387 13.363c-0.030-0.68-0.14-1.148-0.298-1.553-0.163-0.43-0.413-0.815-0.74-1.135-0.32-0.325-0.708-0.578-1.133-0.738-0.408-0.158-0.873-0.268-1.553-0.298-0.685-0.032-0.903-0.040-2.641-0.040s-1.955 0.008-2.638 0.038c-0.68 0.030-1.148 0.14-1.553 0.298-0.43 0.162-0.815 0.413-1.135 0.74-0.325 0.32-0.578 0.708-0.738 1.133-0.158 0.408-0.268 0.873-0.298 1.553-0.032 0.685-0.040 0.903-0.040 2.641s0.008 1.955 0.038 2.638c0.030 0.68 0.14 1.148 0.298 1.553 0.162 0.43 0.415 0.815 0.74 1.135 0.32 0.325 0.708 0.578 1.133 0.738 0.408 0.158 0.873 0.268 1.553 0.298 0.683 0.030 0.9 0.038 2.638 0.038s1.955-0.007 2.638-0.038c0.68-0.030 1.148-0.14 1.553-0.298 0.86-0.333 1.54-1.013 1.873-1.873 0.157-0.408 0.268-0.873 0.298-1.553 0.030-0.683 0.038-0.9 0.038-2.638s-0.003-1.955-0.033-2.638zM21.235 18.589c-0.028 0.625-0.133 0.963-0.22 1.188-0.215 0.558-0.658 1-1.215 1.215-0.225 0.088-0.565 0.193-1.188 0.22-0.675 0.030-0.878 0.037-2.585 0.037s-1.913-0.007-2.586-0.037c-0.625-0.027-0.963-0.132-1.188-0.22-0.278-0.103-0.53-0.265-0.735-0.478-0.213-0.208-0.375-0.458-0.478-0.735-0.088-0.225-0.193-0.565-0.22-1.188-0.030-0.675-0.038-0.878-0.038-2.586s0.007-1.913 0.038-2.586c0.027-0.625 0.132-0.963 0.22-1.188 0.103-0.278 0.265-0.53 0.48-0.735 0.207-0.213 0.458-0.375 0.735-0.478 0.225-0.087 0.565-0.192 1.188-0.22 0.675-0.030 0.878-0.038 2.586-0.038 1.71 0 1.913 0.008 2.586 0.038 0.625 0.028 0.963 0.133 1.188 0.22 0.277 0.102 0.53 0.265 0.735 0.478 0.212 0.208 0.375 0.458 0.478 0.735 0.088 0.225 0.192 0.565 0.22 1.188 0.030 0.675 0.038 0.878 0.038 2.586s-0.008 1.908-0.038 2.583z"></path>
<path fill="#f4f4fd" style="fill: var(--color2, #f4f4fd)" d="M16.024 12.713c-1.815 0-3.288 1.473-3.288 3.288s1.473 3.288 3.288 3.288c1.815 0 3.288-1.473 3.288-3.288s-1.473-3.288-3.288-3.288zM16.024 18.134c-1.178 0-2.133-0.955-2.133-2.133s0.955-2.133 2.133-2.133c1.178 0 2.133 0.955 2.133 2.133s-0.955 2.133-2.133 2.133z"></path>
<path fill="#f4f4fd" style="fill: var(--color2, #f4f4fd)" d="M20.21 12.583c0 0.424-0.344 0.768-0.768 0.768s-0.768-0.344-0.768-0.768c0-0.424 0.344-0.768 0.768-0.768s0.768 0.344 0.768 0.768z"></path>
</symbol>
<symbol id="icon-twitter" viewBox="0 0 32 32">
<path fill="#4d5ae5" style="fill: var(--color1, #4d5ae5)" d="M32 16c0 4.418-1.791 8.418-4.686 11.314s-6.895 4.686-11.314 4.686c-4.418 0-8.418-1.791-11.314-4.686s-4.686-6.895-4.686-11.314c0-4.418 1.791-8.418 4.686-11.314s6.895-4.686 11.314-4.686c4.418 0 8.418 1.791 11.314 4.686s4.686 6.895 4.686 11.314z"></path>
<path fill="#f4f4fd" style="fill: var(--color2, #f4f4fd)" d="M22.4 12.031c-0.476 0.209-0.983 0.347-1.512 0.414 0.544-0.325 0.959-0.835 1.154-1.45-0.507 0.302-1.067 0.516-1.664 0.635-0.482-0.513-1.168-0.83-1.917-0.83-1.453 0-2.622 1.179-2.622 2.625 0 0.208 0.018 0.408 0.061 0.598-2.182-0.106-4.112-1.152-5.409-2.745-0.226 0.393-0.359 0.842-0.359 1.326 0 0.909 0.468 1.714 1.166 2.181-0.422-0.008-0.835-0.13-1.186-0.323 0 0.008 0 0.018 0 0.029 0 1.275 0.91 2.334 2.102 2.578-0.214 0.058-0.446 0.086-0.688 0.086-0.168 0-0.338-0.010-0.497-0.045 0.34 1.039 1.305 1.803 2.452 1.828-0.893 0.698-2.026 1.119-3.254 1.119-0.215 0-0.422-0.010-0.628-0.036 1.162 0.75 2.54 1.178 4.026 1.178 4.829 0 7.469-4 7.469-7.467 0-0.116-0.004-0.228-0.010-0.339 0.521-0.37 0.958-0.831 1.315-1.362z"></path>
</symbol>
<symbol id="icon-facebook" viewBox="0 0 32 32">
<path fill="#4d5ae5" style="fill: var(--color1, #4d5ae5)" d="M32 16c0 4.418-1.791 8.418-4.686 11.314s-6.895 4.686-11.314 4.686c-4.418 0-8.418-1.791-11.314-4.686s-4.686-6.895-4.686-11.314c0-4.418 1.791-8.418 4.686-11.314s6.895-4.686 11.314-4.686c4.418 0 8.418 1.791 11.314 4.686s4.686 6.895 4.686 11.314z"></path>
<path fill="#f4f4fd" style="fill: var(--color2, #f4f4fd)" d="M18.132 11.725h1.169v-2.035c-0.202-0.028-0.895-0.090-1.702-0.090-1.685 0-2.839 1.060-2.839 3.007v1.793h-1.859v2.275h1.859v5.725h2.28v-5.724h1.784l0.283-2.275h-2.068v-1.567c0.001-0.658 0.178-1.108 1.094-1.108z"></path>
</symbol>
<symbol id="icon-linkedin" viewBox="0 0 32 32">
<path fill="#4d5ae5" style="fill: var(--color1, #4d5ae5)" d="M32 16c0 4.418-1.791 8.418-4.686 11.314s-6.895 4.686-11.314 4.686c-4.418 0-8.418-1.791-11.314-4.686s-4.686-6.895-4.686-11.314c0-4.418 1.791-8.418 4.686-11.314s6.895-4.686 11.314-4.686c4.418 0 8.418 1.791 11.314 4.686s4.686 6.895 4.686 11.314z"></path>
<path fill="#f4f4fd" style="fill: var(--color2, #f4f4fd)" d="M22.397 22.4v-0.001h0.003v-4.694c0-2.297-0.494-4.066-3.179-4.066-1.291 0-2.157 0.708-2.51 1.38h-0.037v-1.165h-2.546v8.546h2.651v-4.231c0-1.114 0.211-2.192 1.591-2.192 1.359 0 1.38 1.272 1.38 2.263v4.161h2.648z"></path>
<path fill="#f4f4fd" style="fill: var(--color2, #f4f4fd)" d="M9.811 13.854h2.654v8.546h-2.654v-8.546z"></path>
<path fill="#f4f4fd" style="fill: var(--color2, #f4f4fd)" d="M11.137 9.6c-0.848 0-1.537 0.688-1.537 1.537s0.689 1.551 1.537 1.551c0.849 0 1.537-0.703 1.537-1.551s-0.689-1.537-1.537-1.537v0z"></path>
</symbol>
<symbol id="icon-third" viewBox="0 0 61 32">
<path fill="#8e8f99" style="fill: var(--color1, #8e8f99)" d="M25.022 23.718c0.006 0 0.012 0.001 0.017 0.003s0.010 0.005 0.014 0.009l0.080 0.076c-0.062 0.061-0.139 0.11-0.226 0.143-0.101 0.036-0.21 0.054-0.32 0.051-0.103 0.002-0.206-0.015-0.301-0.048-0.086-0.031-0.163-0.077-0.227-0.136-0.065-0.061-0.114-0.132-0.147-0.209-0.035-0.086-0.052-0.177-0.051-0.268-0.001-0.092 0.017-0.183 0.055-0.269 0.035-0.078 0.088-0.149 0.156-0.209 0.069-0.059 0.151-0.105 0.241-0.136 0.099-0.033 0.204-0.049 0.31-0.048 0.098-0.002 0.196 0.013 0.288 0.044 0.079 0.029 0.152 0.070 0.216 0.121l-0.067 0.081c-0.005 0.006-0.010 0.011-0.017 0.015-0.008 0.005-0.018 0.007-0.027 0.006s-0.020-0.004-0.029-0.009l-0.036-0.021-0.050-0.027c-0.022-0.010-0.044-0.019-0.067-0.027-0.030-0.009-0.060-0.016-0.091-0.021-0.039-0.006-0.079-0.009-0.119-0.009-0.076-0.001-0.152 0.011-0.223 0.036-0.066 0.023-0.125 0.057-0.175 0.101-0.050 0.047-0.089 0.102-0.113 0.161-0.028 0.068-0.042 0.14-0.041 0.213-0.001 0.074 0.013 0.147 0.041 0.216 0.024 0.059 0.062 0.114 0.111 0.16 0.046 0.044 0.103 0.078 0.167 0.099 0.066 0.023 0.136 0.035 0.207 0.034 0.041 0 0.082-0.002 0.122-0.007 0.066-0.007 0.13-0.027 0.186-0.058 0.028-0.016 0.055-0.034 0.079-0.053 0.010-0.008 0.024-0.013 0.038-0.014z"></path>
<path fill="#8e8f99" style="fill: var(--color1, #8e8f99)" d="M27.34 23.338c0.001 0.091-0.017 0.181-0.054 0.267-0.033 0.077-0.084 0.148-0.151 0.207s-0.148 0.105-0.237 0.136c-0.197 0.064-0.414 0.064-0.61 0-0.089-0.031-0.169-0.077-0.236-0.136-0.067-0.060-0.119-0.131-0.153-0.209-0.072-0.173-0.072-0.362 0-0.534 0.034-0.078 0.086-0.149 0.153-0.21 0.067-0.057 0.148-0.102 0.236-0.131 0.196-0.065 0.414-0.065 0.61 0 0.089 0.031 0.17 0.077 0.237 0.136 0.066 0.060 0.118 0.13 0.152 0.207 0.037 0.086 0.056 0.177 0.054 0.268zM27.13 23.338c0.002-0.073-0.011-0.145-0.038-0.214-0.023-0.059-0.059-0.114-0.107-0.16-0.047-0.044-0.105-0.079-0.17-0.101-0.143-0.047-0.301-0.047-0.444 0-0.065 0.023-0.123 0.057-0.17 0.101-0.049 0.046-0.086 0.101-0.108 0.16-0.051 0.14-0.051 0.289 0 0.429 0.023 0.059 0.060 0.114 0.108 0.16 0.047 0.044 0.105 0.078 0.17 0.1 0.143 0.046 0.301 0.046 0.444 0 0.065-0.022 0.122-0.057 0.17-0.1 0.048-0.047 0.085-0.101 0.107-0.16 0.027-0.069 0.040-0.142 0.038-0.214z"></path>
<path fill="#8e8f99" style="fill: var(--color1, #8e8f99)" d="M28.922 23.563l0.021 0.048c0.008-0.017 0.015-0.033 0.023-0.048s0.016-0.032 0.026-0.047l0.513-0.797c0.010-0.014 0.019-0.022 0.029-0.025 0.014-0.004 0.028-0.005 0.042-0.004h0.152v1.296h-0.18v-0.953c0-0.012 0-0.026 0-0.040s-0.001-0.030 0-0.045l-0.516 0.808c-0.007 0.012-0.017 0.022-0.030 0.029s-0.028 0.011-0.044 0.011h-0.029c-0.016 0-0.031-0.004-0.044-0.011s-0.024-0.017-0.030-0.030l-0.531-0.813c0 0.015 0 0.031 0 0.046s0 0.029 0 0.041v0.953h-0.174v-1.293h0.152c0.014-0.001 0.029 0.001 0.042 0.004 0.012 0.005 0.022 0.014 0.028 0.025l0.524 0.798c0.010 0.015 0.019 0.030 0.026 0.046z"></path>
<path fill="#8e8f99" style="fill: var(--color1, #8e8f99)" d="M30.853 23.499v0.485h-0.201v-1.294h0.448c0.084-0.001 0.169 0.008 0.25 0.028 0.065 0.016 0.125 0.043 0.177 0.081 0.045 0.035 0.079 0.078 0.1 0.127 0.024 0.053 0.035 0.109 0.034 0.166 0.001 0.057-0.012 0.113-0.037 0.166-0.024 0.050-0.061 0.094-0.108 0.13-0.052 0.039-0.112 0.068-0.178 0.086-0.078 0.021-0.16 0.031-0.242 0.030l-0.243-0.003zM30.853 23.36h0.243c0.053 0.001 0.105-0.006 0.156-0.020 0.041-0.012 0.080-0.031 0.112-0.056 0.030-0.024 0.053-0.053 0.068-0.086 0.016-0.035 0.025-0.072 0.024-0.109 0.002-0.036-0.005-0.072-0.020-0.105s-0.040-0.064-0.070-0.088c-0.077-0.051-0.173-0.076-0.27-0.069h-0.243v0.533z"></path>
<path fill="#8e8f99" style="fill: var(--color1, #8e8f99)" d="M33.551 23.986h-0.159c-0.016 0-0.032-0.004-0.044-0.012-0.011-0.008-0.020-0.018-0.026-0.030l-0.136-0.313h-0.686l-0.142 0.313c-0.005 0.011-0.014 0.021-0.025 0.029-0.013 0.009-0.029 0.013-0.045 0.013h-0.159l0.602-1.296h0.209l0.61 1.296zM32.557 23.505h0.566l-0.239-0.527c-0.018-0.040-0.033-0.080-0.045-0.122l-0.023 0.068c-0.007 0.021-0.015 0.039-0.022 0.055l-0.237 0.527z"></path>
<path fill="#8e8f99" style="fill: var(--color1, #8e8f99)" d="M34.418 22.696c0.012 0.006 0.022 0.014 0.030 0.023l0.878 0.977c0-0.015 0-0.031 0-0.045s0-0.029 0-0.043v-0.918h0.18v1.296h-0.1c-0.014 0-0.028-0.002-0.041-0.008s-0.023-0.014-0.032-0.024l-0.877-0.976c0.001 0.015 0.001 0.030 0 0.045s0 0.027 0 0.039v0.924h-0.18v-1.296h0.106c0.012-0 0.025 0.002 0.036 0.006z"></path>
<path fill="#8e8f99" style="fill: var(--color1, #8e8f99)" d="M36.985 23.47v0.515h-0.201v-0.515l-0.555-0.78h0.18c0.016-0.001 0.031 0.003 0.043 0.011 0.011 0.008 0.020 0.018 0.027 0.029l0.347 0.503c0.014 0.021 0.026 0.041 0.036 0.060s0.018 0.037 0.025 0.055l0.026-0.056c0.010-0.020 0.021-0.040 0.034-0.059l0.343-0.507c0.007-0.010 0.016-0.019 0.026-0.027 0.012-0.009 0.028-0.014 0.043-0.013h0.182l-0.556 0.784z"></path>
<path fill="#8e8f99" style="fill: var(--color1, #8e8f99)" d="M28.823 20.515c0.087 0.009 0.176 0.017 0.265 0.024 1.354-0.518 2.5-1.365 3.294-2.436s1.201-2.318 1.17-3.585l-1.493-1.275c0.303 1.349 0.162 2.744-0.41 4.029s-1.55 2.408-2.826 3.244z"></path>
<path fill="#8e8f99" style="fill: var(--color1, #8e8f99)" d="M28.29 20.456l0.040 0.007c1.364-0.833 2.403-1.997 2.984-3.341s0.677-2.805 0.276-4.196l-2.126-1.816c0.86 1.493 1.206 3.164 0.998 4.818s-0.961 3.225-2.172 4.528z"></path>
<path fill="#8e8f99" style="fill: var(--color1, #8e8f99)" d="M35.5 16.015c-0.361 1.393-1.238 2.648-2.501 3.581-0.369 0.274-0.767 0.518-1.188 0.729 1.028-0.258 1.974-0.715 2.763-1.335s1.401-1.386 1.789-2.24l-0.862-0.736z"></path>
<path fill="#8e8f99" style="fill: var(--color1, #8e8f99)" d="M35.162 15.81l-1.228-1.049c-0.023 1.196-0.421 2.364-1.152 3.384s-1.768 1.854-3.004 2.416h0.006c0.275-0 0.551-0.014 0.824-0.042 1.155-0.403 2.175-1.044 2.97-1.865s1.339-1.799 1.584-2.844z"></path>
<path fill="#8e8f99" style="fill: var(--color1, #8e8f99)" d="M28.468 10.344l-1.465-1.253c-1.309 0.432-2.435 1.192-3.231 2.18s-1.223 2.158-1.227 3.357v0c0.005 1.325 0.527 2.611 1.483 3.654s2.293 1.784 3.797 2.105c1.343-1.398 2.13-3.126 2.245-4.932s-0.446-3.597-1.604-5.111z"></path>
<path fill="#8e8f99" style="fill: var(--color1, #8e8f99)" d="M38.545 15.617c-0.005-1.572-0.739-3.079-2.040-4.19s-3.064-1.738-4.904-1.743c-0.85-0.001-1.693 0.133-2.486 0.395l8.967 7.661c0.307-0.677 0.464-1.397 0.464-2.123z"></path>
</symbol>
<symbol id="icon-second" viewBox="0 0 61 32">
<path fill="#8e8f99" style="fill: var(--color1, #8e8f99)" d="M29.86 7.976h-0.050c-0.076-0.005-0.153-0.006-0.229-0.008v0h-0.166c-0.144 0-0.292 0.004-0.438 0.011-0.011-0.001-0.022-0.001-0.033 0-1.325 0.075-2.624 0.406-3.824 0.976l-0.157 0.076v8.051l0.368-0.125c0.323-0.111 0.667-0.211 1.023-0.303 0.962-0.247 1.951-0.378 2.944-0.391v1.058c-0.132 0.001-0.259 0.005-0.387 0.011h-0.030c-0.764 0.042-1.523 0.158-2.265 0.348-0.94 0.235-1.846 0.588-2.698 1.051v-10.326c0.885-0.516 1.838-0.904 2.831-1.151 0.872-0.225 1.768-0.341 2.668-0.344h0.155c0.186 0.005 0.367 0.013 0.537 0.026 0.448 0.032 0.893 0.102 1.329 0.212v1.041c-0.424-0.099-0.854-0.164-1.288-0.194-0.009-0.001-0.018-0.002-0.026-0.002-0.090-0.008-0.18-0.015-0.263-0.015zM31.692 9.040c0.231 0.018 0.47 0.026 0.712 0.026 0.946-0.003 1.888-0.124 2.805-0.36 0.939-0.236 1.846-0.59 2.697-1.052v10.142c-0.885 0.516-1.838 0.903-2.831 1.151-0.872 0.224-1.768 0.339-2.668 0.343-0.682 0.006-1.362-0.075-2.024-0.239v-10.208c0.156 0.036 0.317 0.069 0.481 0.097 0.269 0.045 0.552 0.079 0.828 0.099zM36.853 9.119l-0.368 0.124c-0.338 0.114-0.68 0.215-1.023 0.306-0.999 0.257-2.026 0.388-3.057 0.392-0.24 0-0.461-0.006-0.674-0.020l-0.293-0.019v8.283l0.252 0.022c0.234 0.020 0.475 0.030 0.718 0.030 0.812-0.003 1.621-0.108 2.407-0.312 0.648-0.162 1.278-0.389 1.881-0.676l0.157-0.076v-8.054z"></path>
<path fill="#8e8f99" style="fill: var(--color1, #8e8f99)" d="M24.632 22.259c-0.053-0.055-0.117-0.098-0.187-0.126s-0.146-0.042-0.222-0.039c-0.081-0.001-0.161 0.014-0.236 0.044-0.069 0.027-0.131 0.069-0.184 0.121s-0.092 0.116-0.119 0.185c-0.029 0.073-0.043 0.15-0.042 0.228v1.38c-0.003 0.097 0.015 0.194 0.054 0.283 0.033 0.071 0.080 0.134 0.138 0.185 0.055 0.046 0.12 0.080 0.19 0.098 0.067 0.019 0.136 0.028 0.206 0.029 0.077 0.001 0.153-0.016 0.223-0.048 0.069-0.030 0.131-0.074 0.184-0.128 0.051-0.054 0.092-0.116 0.12-0.185 0.029-0.070 0.044-0.144 0.044-0.22v-0.154h-0.361v0.123c0.001 0.042-0.006 0.084-0.021 0.123-0.012 0.029-0.030 0.056-0.052 0.078-0.022 0.018-0.048 0.032-0.075 0.040-0.024 0.008-0.050 0.012-0.075 0.013-0.032 0.004-0.065-0.001-0.095-0.014s-0.055-0.034-0.075-0.060c-0.034-0.055-0.051-0.12-0.048-0.185v-1.286c-0.002-0.071 0.013-0.142 0.044-0.206 0.019-0.029 0.045-0.052 0.076-0.067s0.066-0.020 0.1-0.016c0.031-0.001 0.062 0.005 0.090 0.019s0.052 0.034 0.071 0.059c0.040 0.053 0.061 0.118 0.060 0.185v0.119h0.357v-0.141c0.001-0.083-0.014-0.164-0.044-0.241-0.027-0.072-0.068-0.138-0.12-0.194z"></path>
<path fill="#8e8f99" style="fill: var(--color1, #8e8f99)" d="M26.774 22.243c-0.115-0.097-0.26-0.151-0.41-0.152-0.073 0-0.146 0.013-0.215 0.039-0.070 0.025-0.135 0.063-0.19 0.113-0.060 0.054-0.107 0.12-0.14 0.193-0.036 0.084-0.054 0.175-0.052 0.267v1.323c-0.002 0.093 0.015 0.186 0.052 0.271 0.033 0.071 0.080 0.134 0.14 0.185 0.055 0.051 0.12 0.091 0.19 0.117 0.069 0.025 0.142 0.038 0.215 0.039s0.146-0.013 0.215-0.039c0.072-0.026 0.138-0.066 0.195-0.117s0.104-0.115 0.136-0.185c0.037-0.085 0.055-0.178 0.052-0.271v-1.323c0.002-0.092-0.016-0.183-0.052-0.267-0.032-0.073-0.078-0.139-0.136-0.193zM26.606 24.027c0.003 0.035-0.002 0.071-0.014 0.104s-0.032 0.063-0.058 0.088c-0.048 0.040-0.108 0.062-0.17 0.062s-0.122-0.022-0.17-0.062c-0.025-0.024-0.045-0.054-0.058-0.088s-0.017-0.069-0.014-0.104v-1.323c-0.003-0.035 0.002-0.071 0.014-0.104s0.032-0.063 0.058-0.088c0.048-0.040 0.108-0.062 0.17-0.062s0.122 0.022 0.17 0.062c0.025 0.024 0.045 0.054 0.058 0.088s0.017 0.069 0.014 0.104v1.323z"></path>
<path fill="#8e8f99" style="fill: var(--color1, #8e8f99)" d="M29.588 24.618v-2.505h-0.347l-0.455 1.326h-0.006l-0.459-1.326h-0.343v2.505h0.358v-1.524h0.006l0.35 1.077h0.178l0.353-1.077h0.006v1.524h0.358z"></path>
<path fill="#8e8f99" style="fill: var(--color1, #8e8f99)" d="M31.621 22.289c-0.055-0.062-0.125-0.109-0.202-0.137-0.084-0.027-0.171-0.040-0.259-0.039h-0.532v2.505h0.357v-0.978h0.184c0.111 0.005 0.222-0.018 0.322-0.068 0.081-0.045 0.149-0.111 0.196-0.191 0.041-0.067 0.069-0.141 0.082-0.218 0.014-0.094 0.020-0.19 0.019-0.285 0.003-0.12-0.008-0.241-0.035-0.358-0.024-0.087-0.069-0.166-0.132-0.23zM31.437 23.052c-0.002 0.045-0.013 0.090-0.033 0.13-0.020 0.038-0.053 0.069-0.092 0.088-0.053 0.024-0.111 0.034-0.168 0.031h-0.163v-0.852h0.184c0.055-0.003 0.111 0.008 0.161 0.031 0.037 0.021 0.066 0.054 0.084 0.092 0.020 0.044 0.030 0.091 0.031 0.14 0 0.053 0 0.108 0 0.166s0.004 0.118 0 0.172h-0.004z"></path>
<path fill="#8e8f99" style="fill: var(--color1, #8e8f99)" d="M33.312 22.113h-0.293l-0.552 2.505h0.357l0.105-0.538h0.487l0.105 0.538h0.357l-0.566-2.505zM32.983 23.739l0.176-0.908h0.006l0.175 0.908h-0.357z"></path>
<path fill="#8e8f99" style="fill: var(--color1, #8e8f99)" d="M35.618 23.622h-0.006l-0.539-1.509h-0.343v2.505h0.357v-1.506h0.007l0.545 1.506h0.336v-2.505h-0.357v1.509z"></path>
<path fill="#8e8f99" style="fill: var(--color1, #8e8f99)" d="M37.799 22.113l-0.287 0.996h-0.007l-0.287-0.996h-0.378l0.49 1.446v1.059h0.357v-1.059l0.49-1.446h-0.378z"></path>
<path fill="#8e8f99" style="fill: var(--color1, #8e8f99)" d="M23.636 25.325h0.172v0.483h0.117v-0.483h0.171v-0.099h-0.46v0.099z"></path>
<path fill="#8e8f99" style="fill: var(--color1, #8e8f99)" d="M25.082 25.226l-0.225 0.582h0.124l0.048-0.132h0.232l0.050 0.132h0.127l-0.231-0.582h-0.124zM25.064 25.578l0.079-0.215 0.079 0.215h-0.158z"></path>
<path fill="#8e8f99" style="fill: var(--color1, #8e8f99)" d="M26.512 25.593h0.134v0.075c-0.039 0.031-0.088 0.049-0.138 0.049-0.023 0.001-0.047-0.003-0.068-0.013s-0.040-0.024-0.055-0.043c-0.031-0.044-0.046-0.098-0.043-0.152 0-0.129 0.056-0.194 0.167-0.194 0.029-0.003 0.059 0.005 0.083 0.022s0.041 0.042 0.049 0.071l0.115-0.022c-0.025-0.114-0.107-0.171-0.247-0.171-0.075-0.002-0.148 0.025-0.203 0.075-0.029 0.029-0.052 0.064-0.066 0.103s-0.020 0.080-0.017 0.121c-0.003 0.080 0.023 0.158 0.075 0.218 0.028 0.029 0.063 0.052 0.101 0.067s0.079 0.021 0.12 0.018c0.091 0.003 0.179-0.031 0.247-0.092v-0.229h-0.252v0.098z"></path>
<path fill="#8e8f99" style="fill: var(--color1, #8e8f99)" d="M27.972 25.226h-0.118v0.582h0.407v-0.099h-0.29v-0.483z"></path>
<path fill="#8e8f99" style="fill: var(--color1, #8e8f99)" d="M29.206 25.226h-0.118v0.582h0.118v-0.582z"></path>
<path fill="#8e8f99" style="fill: var(--color1, #8e8f99)" d="M30.413 25.615l-0.238-0.388h-0.114v0.582h0.109v-0.38l0.234 0.38h0.117v-0.582h-0.108v0.388z"></path>
<path fill="#8e8f99" style="fill: var(--color1, #8e8f99)" d="M31.504 25.552h0.29v-0.099h-0.29v-0.128h0.312v-0.099h-0.43v0.582h0.442v-0.099h-0.324v-0.157z"></path>
<path fill="#8e8f99" style="fill: var(--color1, #8e8f99)" d="M34.15 25.456h-0.229v-0.229h-0.117v0.582h0.117v-0.254h0.229v0.254h0.117v-0.582h-0.117v0.229z"></path>
<path fill="#8e8f99" style="fill: var(--color1, #8e8f99)" d="M35.247 25.552h0.291v-0.099h-0.291v-0.128h0.313v-0.099h-0.43v0.582h0.441v-0.099h-0.324v-0.157z"></path>
<path fill="#8e8f99" style="fill: var(--color1, #8e8f99)" d="M36.736 25.552c0.101-0.016 0.153-0.069 0.153-0.162 0.003-0.025-0.001-0.050-0.011-0.073s-0.026-0.042-0.046-0.057c-0.053-0.026-0.111-0.038-0.17-0.034h-0.247v0.582h0.117v-0.243h0.023c0.025-0.002 0.050 0.003 0.073 0.013 0.017 0.011 0.031 0.025 0.041 0.043l0.127 0.185h0.14l-0.071-0.114c-0.031-0.056-0.075-0.104-0.129-0.14zM36.618 25.471h-0.086v-0.146h0.092c0.040-0.003 0.080 0.001 0.119 0.014 0.008 0.008 0.015 0.017 0.020 0.027s0.007 0.022 0.006 0.033c-0 0.011-0.004 0.022-0.009 0.032s-0.013 0.019-0.022 0.025c-0.039 0.012-0.079 0.016-0.119 0.014z"></path>
<path fill="#8e8f99" style="fill: var(--color1, #8e8f99)" d="M37.858 25.552h0.289v-0.099h-0.289v-0.128h0.313v-0.099h-0.431v0.582h0.441v-0.099h-0.324v-0.157z"></path>
</symbol>
<symbol id="icon-first" viewBox="0 0 61 32">
<path fill="#8e8f99" style="fill: var(--color1, #8e8f99)" d="M25.455 8.364l2.548 2.428-4.73-0.003v11.779h12.364v-4.504l2.545 2.425v-12.125h-12.727zM35.525 17.779l-7.225-6.884h7.225v6.884zM33.281 20.845h-8.052v-7.922h0.569v7.386h7.483v0.536zM26.835 24.75l-0.3-0.617h-0.248l0.435 0.817v0.476h0.225v-0.476l0.435-0.817h-0.247l-0.3 0.617zM27.941 24.132h0.053l0.488 1.293h-0.234l-0.105-0.303h-0.5l-0.104 0.303h-0.233l0.486-1.293h0.149zM27.704 24.946h0.378l-0.189-0.548-0.189 0.548zM29.266 24.732c-0.010-0.012-0.019-0.024-0.028-0.036-0.033-0.044-0.059-0.086-0.077-0.127s-0.028-0.084-0.028-0.128c0-0.067 0.014-0.125 0.042-0.174s0.067-0.086 0.118-0.112c0.051-0.027 0.11-0.040 0.178-0.040 0.066 0 0.122 0.013 0.17 0.040s0.085 0.061 0.11 0.104c0.026 0.043 0.039 0.091 0.039 0.142 0 0.041-0.007 0.078-0.022 0.112s-0.035 0.064-0.061 0.092c-0.026 0.028-0.056 0.054-0.091 0.079l-0.090 0.065 0.256 0.302c0.008-0.017 0.016-0.034 0.023-0.052 0.022-0.057 0.033-0.12 0.033-0.189h0.185c0 0.063-0.006 0.122-0.019 0.178s-0.031 0.108-0.058 0.156c-0.011 0.020-0.023 0.039-0.037 0.057l0.189 0.224h-0.248l-0.075-0.088c-0.041 0.031-0.085 0.055-0.133 0.072-0.063 0.022-0.13 0.034-0.201 0.034-0.086 0-0.16-0.016-0.223-0.047s-0.111-0.075-0.146-0.13c-0.034-0.055-0.051-0.118-0.051-0.189 0-0.053 0.011-0.099 0.033-0.139s0.052-0.078 0.090-0.112c0.035-0.032 0.075-0.063 0.12-0.095zM29.372 24.861l-0.027 0.019c-0.031 0.025-0.055 0.050-0.070 0.074s-0.025 0.044-0.029 0.064c-0.005 0.020-0.007 0.037-0.007 0.052 0 0.038 0.008 0.072 0.024 0.103s0.041 0.055 0.072 0.074c0.032 0.018 0.071 0.027 0.116 0.027 0.049 0 0.097-0.011 0.143-0.033 0.023-0.011 0.045-0.025 0.066-0.041l-0.288-0.338zM29.423 24.625l0.079-0.053c0.037-0.025 0.064-0.049 0.080-0.073s0.024-0.054 0.024-0.091c0-0.031-0.012-0.059-0.036-0.085s-0.057-0.039-0.1-0.039c-0.030 0-0.056 0.007-0.076 0.021s-0.036 0.032-0.047 0.055c-0.010 0.022-0.015 0.048-0.015 0.075 0 0.027 0.007 0.054 0.020 0.083s0.032 0.057 0.056 0.088c0.005 0.006 0.010 0.012 0.015 0.019zM31.685 25.004h-0.222c-0.006 0.056-0.020 0.104-0.041 0.143s-0.050 0.068-0.090 0.088c-0.039 0.020-0.090 0.030-0.154 0.030-0.052 0-0.097-0.010-0.134-0.031s-0.068-0.050-0.092-0.088c-0.024-0.038-0.041-0.083-0.053-0.136s-0.017-0.112-0.017-0.178v-0.109c0-0.069 0.006-0.13 0.019-0.183s0.032-0.099 0.058-0.136c0.025-0.037 0.057-0.064 0.095-0.083s0.082-0.028 0.133-0.028c0.062 0 0.112 0.011 0.151 0.032s0.067 0.051 0.087 0.091c0.020 0.040 0.033 0.087 0.039 0.143h0.222c-0.009-0.086-0.033-0.163-0.073-0.23s-0.094-0.119-0.165-0.157c-0.071-0.038-0.158-0.057-0.261-0.057-0.081 0-0.154 0.014-0.219 0.043s-0.12 0.070-0.166 0.123c-0.046 0.053-0.082 0.117-0.107 0.193s-0.036 0.159-0.036 0.252v0.107c0 0.093 0.012 0.177 0.036 0.252s0.059 0.139 0.105 0.193c0.046 0.053 0.1 0.093 0.164 0.122s0.136 0.043 0.216 0.043c0.104 0 0.193-0.019 0.265-0.057s0.129-0.090 0.17-0.155c0.040-0.066 0.064-0.142 0.071-0.226zM32.918 24.814v-0.071c0-0.098-0.013-0.185-0.039-0.262s-0.062-0.144-0.109-0.198c-0.047-0.055-0.104-0.097-0.17-0.125s-0.139-0.044-0.218-0.044c-0.079 0-0.152 0.015-0.218 0.044s-0.122 0.070-0.17 0.125c-0.047 0.054-0.084 0.12-0.11 0.198s-0.039 0.164-0.039 0.262v0.071c0 0.098 0.013 0.185 0.039 0.263s0.064 0.144 0.112 0.198c0.048 0.054 0.104 0.096 0.17 0.125s0.138 0.043 0.218 0.043c0.080 0 0.153-0.014 0.218-0.043s0.122-0.071 0.169-0.125c0.047-0.054 0.084-0.12 0.109-0.198s0.038-0.165 0.038-0.263zM32.695 24.741v0.073c0 0.072-0.007 0.136-0.021 0.192s-0.034 0.103-0.060 0.141c-0.027 0.038-0.059 0.067-0.098 0.086s-0.083 0.028-0.132 0.028c-0.049 0-0.093-0.009-0.131-0.028s-0.072-0.048-0.099-0.086c-0.027-0.038-0.048-0.086-0.062-0.141s-0.021-0.12-0.021-0.192v-0.073c0-0.072 0.007-0.136 0.021-0.191s0.035-0.102 0.061-0.139c0.027-0.038 0.060-0.066 0.099-0.085s0.082-0.029 0.131-0.029 0.093 0.010 0.132 0.029c0.039 0.019 0.072 0.047 0.099 0.085s0.048 0.084 0.061 0.139c0.014 0.055 0.021 0.119 0.021 0.191z"></path>
</symbol>
<symbol id="icon-forth" viewBox="0 0 61 32">
<path fill="#8e8f99" style="fill: var(--color1, #8e8f99)" d="M20.392 13.643h-0.001c-0.867 0-1.571 0.634-1.571 1.416v0.001c0 0.782 0.703 1.416 1.571 1.416h0.001c0.867 0 1.571-0.634 1.571-1.416v-0.001c0-0.782-0.703-1.416-1.571-1.416z"></path>
<path fill="#8e8f99" style="fill: var(--color1, #8e8f99)" d="M31.986 13.19c-0.002-1.086-0.482-2.128-1.334-2.896s-2.007-1.201-3.212-1.203v0c-1.205 0.002-2.361 0.434-3.213 1.203s-1.332 1.81-1.335 2.896v5.991c0 0 9.092-0.913 9.093-5.99v-0.001z"></path>
<path fill="#8e8f99" style="fill: var(--color1, #8e8f99)" d="M15.636 21.147c0.002 0.756 0.336 1.48 0.929 2.015s1.396 0.836 2.234 0.838c0.838-0.002 1.641-0.303 2.234-0.838s0.927-1.259 0.929-2.014v-4.168c0 0-6.327 0.636-6.327 4.167zM18.8 21.894c-0.164 0-0.324-0.044-0.46-0.126s-0.242-0.199-0.305-0.335-0.079-0.287-0.047-0.432c0.032-0.145 0.111-0.278 0.227-0.382s0.263-0.176 0.424-0.204c0.161-0.029 0.327-0.014 0.479 0.043s0.281 0.152 0.372 0.275c0.091 0.123 0.14 0.267 0.14 0.415 0 0.098-0.021 0.196-0.062 0.287s-0.102 0.174-0.179 0.243c-0.077 0.070-0.168 0.125-0.269 0.163s-0.209 0.057-0.318 0.057v-0.003z"></path>
<path fill="#8e8f99" style="fill: var(--color1, #8e8f99)" d="M24.585 20.551v1.551h-0.32v-1.551h0.32zM25.203 21.214v0.249h-0.705v-0.249h0.705zM25.278 20.551v0.25h-0.78v-0.25h0.78zM26.737 21.29v0.074c0 0.118-0.016 0.224-0.048 0.317s-0.077 0.174-0.135 0.24c-0.058 0.065-0.128 0.115-0.209 0.15s-0.169 0.052-0.267 0.052c-0.097 0-0.186-0.017-0.267-0.052s-0.15-0.085-0.209-0.15c-0.059-0.066-0.105-0.146-0.137-0.24s-0.048-0.2-0.048-0.317v-0.074c0-0.119 0.016-0.224 0.048-0.317s0.077-0.174 0.135-0.24c0.059-0.066 0.129-0.116 0.209-0.151s0.17-0.052 0.267-0.052c0.098 0 0.187 0.017 0.267 0.052s0.151 0.085 0.209 0.151c0.059 0.066 0.104 0.146 0.136 0.24s0.049 0.199 0.049 0.317zM26.414 21.364v-0.076c0-0.082-0.007-0.155-0.022-0.217s-0.037-0.115-0.066-0.158-0.065-0.075-0.107-0.096c-0.042-0.022-0.090-0.033-0.144-0.033s-0.102 0.011-0.144 0.033c-0.041 0.021-0.076 0.053-0.105 0.096s-0.050 0.095-0.065 0.158c-0.015 0.063-0.022 0.135-0.022 0.217v0.076c0 0.082 0.007 0.154 0.022 0.217s0.037 0.115 0.066 0.159c0.029 0.043 0.065 0.075 0.107 0.097s0.090 0.033 0.144 0.033c0.054 0 0.102-0.011 0.144-0.033s0.077-0.054 0.105-0.097c0.028-0.043 0.050-0.096 0.065-0.159s0.022-0.136 0.022-0.217zM27.775 21.696c0-0.028-0.004-0.053-0.013-0.075s-0.023-0.043-0.045-0.062c-0.022-0.019-0.053-0.038-0.093-0.056s-0.091-0.038-0.154-0.058c-0.070-0.023-0.137-0.048-0.2-0.077s-0.118-0.061-0.166-0.099c-0.048-0.038-0.085-0.083-0.113-0.133s-0.040-0.109-0.040-0.176c0-0.065 0.014-0.123 0.043-0.176s0.068-0.099 0.119-0.136c0.051-0.038 0.111-0.068 0.181-0.088s0.147-0.031 0.231-0.031c0.114 0 0.214 0.021 0.299 0.062s0.151 0.098 0.198 0.169c0.048 0.072 0.071 0.154 0.071 0.246h-0.317c0-0.045-0.010-0.085-0.029-0.119s-0.047-0.062-0.085-0.082c-0.038-0.020-0.085-0.030-0.143-0.030-0.055 0-0.102 0.009-0.138 0.026s-0.065 0.039-0.083 0.067c-0.018 0.028-0.028 0.059-0.028 0.094 0 0.026 0.006 0.050 0.019 0.071s0.033 0.041 0.060 0.060 0.059 0.036 0.097 0.052c0.038 0.016 0.083 0.032 0.133 0.048 0.084 0.026 0.159 0.054 0.223 0.086s0.119 0.068 0.162 0.108c0.043 0.040 0.076 0.085 0.098 0.135s0.033 0.108 0.033 0.172c0 0.067-0.013 0.128-0.039 0.181s-0.064 0.098-0.114 0.135c-0.050 0.037-0.109 0.065-0.178 0.084s-0.146 0.029-0.231 0.029c-0.077 0-0.152-0.010-0.227-0.030s-0.142-0.052-0.203-0.093c-0.060-0.041-0.109-0.094-0.145-0.158s-0.054-0.14-0.054-0.227h0.321c0 0.048 0.007 0.089 0.022 0.122s0.036 0.060 0.063 0.081c0.028 0.021 0.060 0.035 0.098 0.045s0.080 0.014 0.126 0.014c0.055 0 0.101-0.008 0.136-0.023s0.063-0.037 0.080-0.065c0.018-0.028 0.027-0.059 0.027-0.094zM29.005 20.551v1.551h-0.319v-1.551h0.319zM29.482 20.551v0.25h-1.266v-0.25h1.266zM30.705 21.853v0.249h-0.826v-0.249h0.826zM29.984 20.551v1.551h-0.32v-1.551h0.32zM30.598 21.183v0.243h-0.718v-0.243h0.718zM30.704 20.551v0.25h-0.825v-0.25h0.825zM30.892 20.551h0.578c0.119 0 0.221 0.018 0.306 0.053s0.152 0.088 0.198 0.158 0.069 0.155 0.069 0.257c0 0.083-0.014 0.154-0.043 0.214s-0.067 0.108-0.118 0.148c-0.050 0.039-0.11 0.070-0.178 0.094l-0.101 0.053h-0.503l-0.002-0.249h0.374c0.056 0 0.103-0.010 0.14-0.030s0.065-0.048 0.083-0.083c0.019-0.035 0.029-0.077 0.029-0.124 0-0.050-0.009-0.093-0.028-0.129s-0.047-0.064-0.084-0.083-0.085-0.029-0.142-0.029h-0.259v1.301h-0.32v-1.551zM31.759 22.102l-0.354-0.691 0.338-0.002 0.358 0.679v0.015h-0.342zM33.437 21.549h-0.395v-0.249h0.395c0.061 0 0.111-0.010 0.149-0.030s0.066-0.049 0.084-0.085c0.018-0.036 0.027-0.077 0.027-0.122s-0.009-0.089-0.027-0.129c-0.018-0.040-0.046-0.072-0.084-0.096s-0.088-0.036-0.149-0.036h-0.284v1.301h-0.32v-1.551h0.604c0.121 0 0.225 0.022 0.312 0.066s0.154 0.103 0.2 0.18c0.046 0.077 0.069 0.164 0.069 0.263 0 0.1-0.023 0.187-0.069 0.26s-0.113 0.13-0.2 0.169c-0.087 0.040-0.191 0.060-0.312 0.060zM35.28 21.853v0.249h-0.826v-0.249h0.826zM34.559 20.551v1.551h-0.32v-1.551h0.32zM35.172 21.183v0.243h-0.718v-0.243h0.718zM35.279 20.551v0.25h-0.825v-0.25h0.825zM36.181 20.551v1.551h-0.319v-1.551h0.319zM36.659 20.551v0.25h-1.266v-0.25h1.266zM37.881 21.853v0.249h-0.825v-0.249h0.825zM37.16 20.551v1.551h-0.32v-1.551h0.32zM37.774 21.183v0.243h-0.718v-0.243h0.718zM37.88 20.551v0.25h-0.824v-0.25h0.824zM38.068 20.551h0.579c0.119 0 0.22 0.018 0.306 0.053s0.152 0.088 0.198 0.158 0.069 0.155 0.069 0.257c0 0.083-0.014 0.154-0.043 0.214s-0.067 0.108-0.118 0.148c-0.051 0.039-0.11 0.070-0.178 0.094l-0.101 0.053h-0.503l-0.002-0.249h0.374c0.056 0 0.103-0.010 0.139-0.030s0.065-0.048 0.083-0.083c0.019-0.035 0.029-0.077 0.029-0.124 0-0.050-0.009-0.093-0.028-0.129s-0.047-0.064-0.084-0.083c-0.037-0.019-0.085-0.029-0.141-0.029h-0.259v1.301h-0.32v-1.551zM38.935 22.102l-0.354-0.691 0.338-0.002 0.358 0.679v0.015h-0.342zM40.273 21.696c0-0.028-0.004-0.053-0.013-0.075-0.008-0.023-0.023-0.043-0.045-0.062s-0.053-0.038-0.093-0.056c-0.040-0.018-0.091-0.038-0.154-0.058-0.071-0.023-0.137-0.048-0.2-0.077s-0.118-0.061-0.166-0.099c-0.048-0.038-0.085-0.083-0.113-0.133s-0.040-0.109-0.040-0.176c0-0.065 0.014-0.123 0.043-0.176s0.068-0.099 0.119-0.136c0.051-0.038 0.112-0.068 0.181-0.088 0.071-0.021 0.148-0.031 0.231-0.031 0.114 0 0.214 0.021 0.299 0.062s0.151 0.098 0.198 0.169c0.048 0.072 0.071 0.154 0.071 0.246h-0.317c0-0.045-0.009-0.085-0.029-0.119-0.018-0.035-0.047-0.062-0.085-0.082s-0.085-0.030-0.143-0.030c-0.055 0-0.101 0.009-0.139 0.026s-0.064 0.039-0.083 0.067c-0.019 0.028-0.028 0.059-0.028 0.094 0 0.026 0.006 0.050 0.019 0.071s0.033 0.041 0.060 0.060c0.026 0.018 0.059 0.036 0.097 0.052s0.083 0.032 0.133 0.048c0.085 0.026 0.159 0.054 0.223 0.086s0.119 0.068 0.162 0.108 0.076 0.085 0.098 0.135c0.022 0.050 0.033 0.108 0.033 0.172 0 0.067-0.013 0.128-0.039 0.181s-0.064 0.098-0.114 0.135c-0.049 0.037-0.109 0.065-0.178 0.084s-0.146 0.029-0.231 0.029c-0.076 0-0.152-0.010-0.227-0.030s-0.142-0.052-0.203-0.093c-0.060-0.041-0.109-0.094-0.145-0.158s-0.054-0.14-0.054-0.227h0.321c0 0.048 0.007 0.089 0.022 0.122s0.036 0.060 0.063 0.081c0.028 0.021 0.060 0.035 0.098 0.045s0.080 0.014 0.125 0.014c0.056 0 0.101-0.008 0.136-0.023 0.036-0.016 0.063-0.037 0.080-0.065s0.027-0.059 0.027-0.094z"></path>
</symbol>
<symbol id="icon-fifth" viewBox="0 0 61 32">
<path fill="#8e8f99" style="fill: var(--color1, #8e8f99)" d="M21.379 21.954c0.089 0.099 0.137 0.224 0.134 0.352 0.005 0.083-0.012 0.167-0.048 0.244s-0.091 0.146-0.16 0.201c-0.173 0.118-0.388 0.176-0.605 0.162h-1.064v-2.23h1.042c0.206-0.012 0.41 0.040 0.577 0.148 0.067 0.051 0.121 0.115 0.156 0.187s0.051 0.151 0.046 0.23c0.006 0.123-0.037 0.244-0.121 0.341-0.081 0.089-0.193 0.15-0.317 0.174 0.141 0.023 0.268 0.091 0.359 0.191zM20.131 21.617h0.445c0.101 0.007 0.202-0.020 0.283-0.074 0.033-0.027 0.059-0.061 0.076-0.099s0.023-0.078 0.020-0.119c0.003-0.040-0.004-0.081-0.020-0.119s-0.042-0.072-0.074-0.099c-0.084-0.056-0.188-0.083-0.292-0.075h-0.438v0.585zM20.903 22.472c0.036-0.028 0.064-0.063 0.082-0.102s0.026-0.082 0.023-0.124c0.003-0.043-0.006-0.086-0.024-0.126s-0.047-0.075-0.083-0.103c-0.087-0.058-0.194-0.087-0.302-0.081h-0.467v0.613h0.473c0.106 0.006 0.212-0.022 0.299-0.077z"></path>
<path fill="#8e8f99" style="fill: var(--color1, #8e8f99)" d="M23.509 22.912l-0.58-0.872h-0.218v0.872h-0.499v-2.23h0.944c0.238-0.015 0.473 0.053 0.657 0.19 0.132 0.121 0.212 0.28 0.224 0.45s-0.042 0.337-0.154 0.473c-0.116 0.12-0.276 0.2-0.45 0.227l0.617 0.891h-0.542zM22.711 21.737h0.408c0.283 0 0.425-0.113 0.425-0.338 0.003-0.046-0.005-0.092-0.023-0.135s-0.046-0.082-0.081-0.115c-0.090-0.067-0.205-0.099-0.321-0.090h-0.413l0.005 0.679z"></path>
<path fill="#8e8f99" style="fill: var(--color1, #8e8f99)" d="M26.234 22.464h-0.993l-0.175 0.449h-0.523l0.912-2.205h0.565l0.909 2.205h-0.523l-0.172-0.449zM26.101 22.126l-0.363-0.941-0.363 0.941h0.726z"></path>
<path fill="#8e8f99" style="fill: var(--color1, #8e8f99)" d="M29.645 22.913h-0.495l-1.11-1.516v1.516h-0.494v-2.23h0.494l1.11 1.525v-1.525h0.495v2.23z"></path>
<path fill="#8e8f99" style="fill: var(--color1, #8e8f99)" d="M32.469 22.379c-0.102 0.168-0.258 0.305-0.448 0.393-0.215 0.098-0.454 0.146-0.696 0.141h-0.881v-2.23h0.881c0.241-0.006 0.48 0.041 0.696 0.137 0.189 0.086 0.346 0.222 0.448 0.389 0.102 0.181 0.155 0.382 0.155 0.585s-0.053 0.404-0.155 0.585zM31.903 22.325c0.141-0.148 0.219-0.337 0.219-0.532s-0.078-0.384-0.219-0.532c-0.171-0.134-0.393-0.202-0.62-0.19h-0.344v1.443h0.344c0.226 0.013 0.449-0.055 0.62-0.19z"></path>
<path fill="#8e8f99" style="fill: var(--color1, #8e8f99)" d="M26.543 8.279c0 0 6.388 2.171 6.252 5.313v5.314c0 0-6.383-2.172-6.25-5.314l-0.002-5.313z"></path>
<path fill="#8e8f99" style="fill: var(--color1, #8e8f99)" d="M38.487 17.662c1.207-0.747 2.602-1.21 4.059-1.346v-1.663c-1.679 0.582-3.102 1.638-4.059 3.010z"></path>
<path fill="#8e8f99" style="fill: var(--color1, #8e8f99)" d="M37.762 18.163c0.987-1.79 2.699-3.171 4.783-3.86v-4.793c0 0-9.097 3.093-8.905 7.567v7.566c0 0 0.405-0.138 1.043-0.398 0-0.242 0-0.486 0.029-0.731 0.188-2.077 1.285-4.002 3.050-5.351z"></path>
<path fill="#8e8f99" style="fill: var(--color1, #8e8f99)" d="M36.897 20.973c0.048-0.525 0.155-1.044 0.319-1.549-1.099 1.165-1.764 2.611-1.902 4.134-0.013 0.144-0.021 0.288-0.024 0.436 0.517-0.223 1.118-0.502 1.75-0.83-0.161-0.721-0.209-1.458-0.142-2.191z"></path>
<path fill="#8e8f99" style="fill: var(--color1, #8e8f99)" d="M37.259 21.001c-0.060 0.663-0.023 1.33 0.113 1.984 2.485-1.339 5.278-3.408 5.171-5.908v-0.218c-1.776 0.179-3.437 0.878-4.729 1.989-0.302 0.689-0.489 1.414-0.554 2.153z"></path>
</symbol>
<symbol id="icon-sixth" viewBox="0 0 61 32">
<path fill="#8e8f99" style="fill: var(--color1, #8e8f99)" d="M31.102 15.798c-0.161-0.215-0.239-0.469-0.22-0.724v-1.050c0-0.322 0.073-0.567 0.219-0.734s0.397-0.251 0.753-0.25c0.334 0 0.572 0.071 0.712 0.214 0.153 0.182 0.228 0.404 0.21 0.628v0.247h-0.598v-0.25c0.002-0.082-0.004-0.164-0.017-0.245-0.009-0.055-0.039-0.107-0.085-0.145-0.061-0.042-0.139-0.062-0.217-0.057-0.082-0.005-0.163 0.016-0.228 0.060-0.052 0.043-0.087 0.099-0.099 0.16-0.017 0.086-0.025 0.173-0.024 0.26v1.275c-0.009 0.123 0.017 0.246 0.077 0.358 0.030 0.038 0.071 0.068 0.119 0.087s0.102 0.026 0.154 0.020c0.077 0.005 0.153-0.015 0.212-0.058 0.049-0.042 0.080-0.096 0.089-0.155 0.014-0.085 0.020-0.17 0.019-0.255v-0.259h0.598v0.236c0.017 0.234-0.056 0.466-0.207 0.66-0.137 0.156-0.371 0.234-0.716 0.234s-0.604-0.083-0.752-0.256z"></path>
<path fill="#8e8f99" style="fill: var(--color1, #8e8f99)" d="M33.591 15.808c-0.151-0.163-0.227-0.402-0.227-0.717v-1.105c0-0.312 0.076-0.548 0.227-0.708s0.404-0.24 0.758-0.239c0.352 0 0.603 0.080 0.754 0.239s0.228 0.396 0.228 0.708v1.105c0 0.312-0.077 0.551-0.23 0.716s-0.404 0.247-0.752 0.247-0.605-0.083-0.758-0.246zM34.628 15.543c0.054-0.102 0.079-0.215 0.072-0.327v-1.353c0.007-0.11-0.017-0.22-0.071-0.321-0.030-0.039-0.073-0.069-0.122-0.088s-0.104-0.025-0.158-0.019c-0.054-0.006-0.108 0-0.158 0.019s-0.092 0.049-0.123 0.088c-0.054 0.1-0.079 0.21-0.072 0.32v1.359c-0.008 0.112 0.017 0.225 0.072 0.327 0.035 0.034 0.078 0.062 0.126 0.081s0.101 0.029 0.154 0.029 0.105-0.010 0.154-0.029c0.048-0.019 0.091-0.047 0.126-0.081v-0.006z"></path>
<path fill="#8e8f99" style="fill: var(--color1, #8e8f99)" d="M36.050 13.071h0.644l0.484 2.038 0.495-2.038h0.627l0.063 2.942h-0.463l-0.049-2.045-0.478 2.045h-0.371l-0.495-2.052-0.046 2.052h-0.468l0.058-2.942z"></path>
<path fill="#8e8f99" style="fill: var(--color1, #8e8f99)" d="M39.085 13.071h1.003c0.577 0 0.867 0.278 0.867 0.835 0 0.533-0.304 0.8-0.912 0.799h-0.342v1.308h-0.619l0.004-2.942zM39.941 14.329c0.061 0.007 0.123 0.002 0.182-0.014s0.113-0.043 0.158-0.079c0.071-0.099 0.102-0.216 0.089-0.332 0.003-0.090-0.007-0.18-0.029-0.267-0.009-0.029-0.024-0.057-0.046-0.081s-0.048-0.044-0.078-0.059c-0.086-0.036-0.181-0.052-0.276-0.047h-0.24v0.879h0.24z"></path>
<path fill="#8e8f99" style="fill: var(--color1, #8e8f99)" d="M41.847 13.071h0.665l0.682 2.942h-0.577l-0.135-0.678h-0.593l-0.139 0.678h-0.585l0.682-2.942zM42.415 14.994l-0.231-1.235-0.232 1.235h0.463z"></path>
<path fill="#8e8f99" style="fill: var(--color1, #8e8f99)" d="M43.745 13.071h0.433l0.829 1.678v-1.678h0.514v2.942h-0.412l-0.835-1.752v1.752h-0.531l0.001-2.942z"></path>
<path fill="#8e8f99" style="fill: var(--color1, #8e8f99)" d="M46.725 14.892l-0.689-1.816h0.581l0.421 1.167 0.395-1.167h0.568l-0.681 1.816v1.122h-0.594v-1.122z"></path>
<path fill="#8e8f99" style="fill: var(--color1, #8e8f99)" d="M32.057 17.299v0.154h-0.505v1.195h-0.212v-1.195h-0.508v-0.154h1.224z"></path>
<path fill="#8e8f99" style="fill: var(--color1, #8e8f99)" d="M33.641 18.649h-0.163c-0.017 0.001-0.033-0.004-0.046-0.013-0.012-0.008-0.022-0.019-0.027-0.031l-0.146-0.32h-0.701l-0.146 0.32c-0.004 0.013-0.012 0.026-0.022 0.036-0.013 0.009-0.029 0.014-0.046 0.013h-0.163l0.619-1.349h0.215l0.626 1.344zM32.616 18.148h0.584l-0.248-0.549c-0.018-0.042-0.034-0.084-0.046-0.127-0.009 0.026-0.016 0.050-0.024 0.072l-0.022 0.057-0.245 0.548z"></path>
<path fill="#8e8f99" style="fill: var(--color1, #8e8f99)" d="M34.708 18.516c0.039 0.002 0.078 0.002 0.116 0 0.033-0.003 0.067-0.008 0.099-0.016 0.030-0.006 0.060-0.015 0.089-0.025 0.027-0.010 0.054-0.021 0.083-0.033v-0.303h-0.248c-0.006 0-0.012-0-0.018-0.002s-0.011-0.005-0.015-0.008c-0.004-0.003-0.007-0.007-0.009-0.011s-0.003-0.009-0.003-0.014v-0.104h0.48v0.517c-0.039 0.024-0.081 0.046-0.124 0.064s-0.090 0.034-0.137 0.046c-0.051 0.013-0.102 0.022-0.155 0.028-0.060 0.006-0.12 0.009-0.181 0.009-0.107 0.001-0.213-0.016-0.312-0.050-0.093-0.032-0.177-0.080-0.248-0.141-0.069-0.062-0.123-0.134-0.16-0.214-0.039-0.089-0.058-0.184-0.057-0.28-0.001-0.096 0.018-0.192 0.056-0.282 0.036-0.080 0.090-0.153 0.16-0.214s0.155-0.108 0.248-0.14c0.106-0.034 0.219-0.051 0.332-0.050 0.058-0 0.115 0.004 0.172 0.012 0.050 0.007 0.1 0.018 0.147 0.034 0.043 0.014 0.085 0.032 0.124 0.053 0.038 0.021 0.074 0.045 0.108 0.070l-0.059 0.083c-0.005 0.008-0.012 0.014-0.020 0.018s-0.018 0.007-0.028 0.007c-0.014-0-0.027-0.004-0.038-0.011-0.019-0.009-0.038-0.019-0.061-0.032-0.026-0.014-0.054-0.026-0.083-0.036-0.037-0.013-0.075-0.023-0.114-0.030-0.052-0.008-0.105-0.012-0.157-0.012-0.082-0.001-0.163 0.012-0.239 0.037-0.069 0.024-0.131 0.060-0.182 0.107-0.051 0.049-0.090 0.106-0.115 0.168-0.055 0.146-0.055 0.304 0 0.45 0.027 0.063 0.069 0.121 0.124 0.17 0.051 0.046 0.112 0.083 0.181 0.107 0.079 0.023 0.162 0.032 0.245 0.027z"></path>
<path fill="#8e8f99" style="fill: var(--color1, #8e8f99)" d="M36.681 18.495h0.676v0.154h-0.883v-1.349h0.212l-0.005 1.195z"></path>
<path fill="#8e8f99" style="fill: var(--color1, #8e8f99)" d="M38.061 18.649h-0.212v-1.349h0.212v1.349z"></path>
<path fill="#8e8f99" style="fill: var(--color1, #8e8f99)" d="M38.848 17.306c0.012 0.006 0.023 0.015 0.032 0.025l0.905 1.017c-0.001-0.016-0.001-0.032 0-0.048 0-0.015 0-0.030 0-0.044v-0.962h0.184v1.355h-0.107c-0.016 0.001-0.032-0.002-0.046-0.008-0.013-0.007-0.024-0.015-0.033-0.026l-0.904-1.016c0 0.016 0 0.031 0 0.046s0 0.029 0 0.042v0.962h-0.177v-1.349h0.11c0.012 0 0.024 0.002 0.035 0.006z"></path>
<path fill="#8e8f99" style="fill: var(--color1, #8e8f99)" d="M41.529 17.299v0.148h-0.751v0.445h0.608v0.143h-0.608v0.46h0.751v0.148h-0.968v-1.346h0.968z"></path>
<path fill="#8e8f99" style="fill: var(--color1, #8e8f99)" d="M19.344 8.967l9.401 2.303v8.071l-9.401-2.302v-8.072zM18.741 8.279v9.152l10.605 2.599v-9.151l-10.605-2.6z"></path>
<path fill="#8e8f99" style="fill: var(--color1, #8e8f99)" d="M24.425 24.279l-10.607-2.601v-9.151l10.607 2.6v9.152z"></path>
<path fill="#8e8f99" style="fill: var(--color1, #8e8f99)" d="M18.917 8.863l9.278 2.274-3.946 3.406-9.279-2.276 3.947-3.405zM18.741 8.279l-4.923 4.248 10.607 2.6 4.921-4.248-10.605-2.6z"></path>
<path fill="#8e8f99" style="fill: var(--color1, #8e8f99)" d="M25.021 23.764l4.325-3.733-4.325-1.061v4.793z"></path>
</symbol>
<symbol id="icon-linkedinbg" viewBox="0 0 32 32">
<path fill="#4d5ae5" style="fill: var(--color1, #4d5ae5)" d="M32 16c0 4.418-1.791 8.418-4.686 11.314s-6.895 4.686-11.314 4.686c-4.418 0-8.418-1.791-11.314-4.686s-4.686-6.895-4.686-11.314c0-4.418 1.791-8.418 4.686-11.314s6.895-4.686 11.314-4.686c4.418 0 8.418 1.791 11.314 4.686s4.686 6.895 4.686 11.314z"></path>
<path fill="#f4f4fd" style="fill: var(--color2, #f4f4fd)" d="M25.595 25.6v-0.001h0.005v-7.042c0-3.445-0.742-6.098-4.769-6.098-1.936 0-3.235 1.062-3.766 2.070h-0.056v-1.748h-3.818v12.818h3.976v-6.347c0-1.671 0.317-3.287 2.386-3.287 2.039 0 2.070 1.907 2.070 3.394v6.241h3.972z"></path>
<path fill="#f4f4fd" style="fill: var(--color2, #f4f4fd)" d="M6.717 12.782h3.981v12.818h-3.981v-12.818z"></path>
<path fill="#f4f4fd" style="fill: var(--color2, #f4f4fd)" d="M8.706 6.4c-1.273 0-2.306 1.033-2.306 2.306s1.033 2.327 2.306 2.327c1.273 0 2.306-1.054 2.306-2.327s-1.034-2.306-2.306-2.306v0z"></path>
</symbol>
<symbol id="icon-twitterbg" viewBox="0 0 32 32">
<path fill="#4d5ae5" style="fill: var(--color1, #4d5ae5)" d="M32 16c0 4.418-1.791 8.418-4.686 11.314s-6.895 4.686-11.314 4.686c-4.418 0-8.418-1.791-11.314-4.686s-4.686-6.895-4.686-11.314c0-4.418 1.791-8.418 4.686-11.314s6.895-4.686 11.314-4.686c4.418 0 8.418 1.791 11.314 4.686s4.686 6.895 4.686 11.314z"></path>
<path fill="#f4f4fd" style="fill: var(--color2, #f4f4fd)" d="M25.6 10.047c-0.714 0.313-1.475 0.521-2.268 0.622 0.816-0.487 1.439-1.253 1.732-2.176-0.761 0.454-1.601 0.774-2.496 0.953-0.722-0.769-1.752-1.246-2.875-1.246-2.179 0-3.934 1.769-3.934 3.937 0 0.312 0.026 0.612 0.091 0.898-3.272-0.16-6.168-1.728-8.113-4.117-0.34 0.589-0.539 1.264-0.539 1.99 0 1.363 0.702 2.572 1.748 3.271-0.632-0.012-1.253-0.196-1.778-0.485 0 0.012 0 0.028 0 0.043 0 1.913 1.364 3.502 3.154 3.868-0.32 0.088-0.67 0.13-1.032 0.13-0.252 0-0.506-0.014-0.745-0.067 0.51 1.559 1.957 2.705 3.678 2.742-1.339 1.048-3.040 1.679-4.88 1.679-0.323 0-0.632-0.014-0.942-0.054 1.744 1.124 3.81 1.766 6.038 1.766 7.243 0 11.203-6 11.203-11.201 0-0.174-0.006-0.342-0.014-0.509 0.781-0.554 1.438-1.247 1.973-2.044z"></path>
</symbol>
<symbol id="icon-instagrambg" viewBox="0 0 32 32">
<path fill="#4d5ae5" style="fill: var(--color1, #4d5ae5)" d="M32 16c0 4.418-1.791 8.418-4.686 11.314s-6.895 4.686-11.314 4.686c-4.418 0-8.418-1.791-11.314-4.686s-4.686-6.895-4.686-11.314c0-4.418 1.791-8.418 4.686-11.314s6.895-4.686 11.314-4.686c4.418 0 8.418 1.791 11.314 4.686s4.686 6.895 4.686 11.314z"></path>
<path fill="#f4f4fd" style="fill: var(--color2, #f4f4fd)" d="M25.581 12.045c-0.045-1.020-0.21-1.722-0.446-2.329-0.244-0.645-0.619-1.223-1.11-1.703-0.48-0.488-1.061-0.866-1.699-1.106-0.611-0.236-1.309-0.401-2.329-0.446-1.028-0.049-1.354-0.060-3.961-0.060s-2.933 0.011-3.957 0.056c-1.020 0.045-1.722 0.21-2.329 0.446-0.645 0.244-1.223 0.619-1.703 1.11-0.488 0.48-0.866 1.062-1.106 1.699-0.236 0.611-0.401 1.309-0.446 2.329-0.049 1.028-0.060 1.354-0.060 3.961s0.011 2.933 0.056 3.957c0.045 1.020 0.21 1.722 0.446 2.329 0.244 0.645 0.623 1.223 1.11 1.703 0.48 0.488 1.061 0.866 1.699 1.106 0.611 0.236 1.309 0.401 2.329 0.446 1.024 0.045 1.35 0.056 3.957 0.056s2.933-0.011 3.957-0.056c1.020-0.045 1.722-0.21 2.329-0.446 1.29-0.499 2.31-1.519 2.809-2.809 0.236-0.611 0.401-1.309 0.446-2.329 0.045-1.024 0.056-1.35 0.056-3.957s-0.004-2.933-0.049-3.957zM23.852 19.884c-0.041 0.938-0.199 1.444-0.33 1.782-0.323 0.836-0.986 1.5-1.823 1.823-0.338 0.131-0.848 0.289-1.782 0.33-1.013 0.045-1.316 0.056-3.878 0.056s-2.869-0.011-3.878-0.056c-0.938-0.041-1.444-0.199-1.782-0.33-0.416-0.154-0.795-0.398-1.103-0.716-0.319-0.311-0.563-0.686-0.716-1.103-0.131-0.338-0.289-0.848-0.33-1.782-0.045-1.013-0.056-1.317-0.056-3.878s0.011-2.869 0.056-3.878c0.041-0.938 0.199-1.444 0.33-1.782 0.154-0.416 0.398-0.795 0.72-1.103 0.311-0.319 0.686-0.563 1.103-0.716 0.338-0.131 0.848-0.289 1.782-0.33 1.013-0.045 1.317-0.056 3.878-0.056 2.566 0 2.869 0.011 3.878 0.056 0.938 0.041 1.444 0.199 1.782 0.33 0.416 0.154 0.795 0.397 1.103 0.716 0.319 0.311 0.563 0.686 0.716 1.103 0.131 0.338 0.289 0.848 0.33 1.782 0.045 1.013 0.056 1.316 0.056 3.878s-0.011 2.862-0.056 3.875z"></path>
<path fill="#f4f4fd" style="fill: var(--color2, #f4f4fd)" d="M16.036 11.070c-2.723 0-4.932 2.209-4.932 4.932s2.209 4.932 4.932 4.932c2.723 0 4.932-2.209 4.932-4.932s-2.209-4.932-4.932-4.932zM16.036 19.201c-1.766 0-3.199-1.433-3.199-3.199s1.433-3.199 3.199-3.199c1.767 0 3.199 1.433 3.199 3.199s-1.433 3.199-3.199 3.199z"></path>
<path fill="#f4f4fd" style="fill: var(--color2, #f4f4fd)" d="M22.314 10.875c0 0.636-0.516 1.151-1.152 1.151s-1.151-0.516-1.151-1.151c0-0.636 0.516-1.151 1.151-1.151s1.152 0.515 1.152 1.151z"></path>
</symbol>
<symbol id="icon-facebookbg" viewBox="0 0 32 32">
<path fill="#4d5ae5" style="fill: var(--color1, #4d5ae5)" d="M32 16c0 4.418-1.791 8.418-4.686 11.314s-6.895 4.686-11.314 4.686c-4.418 0-8.418-1.791-11.314-4.686s-4.686-6.895-4.686-11.314c0-4.418 1.791-8.418 4.686-11.314s6.895-4.686 11.314-4.686c4.418 0 8.418 1.791 11.314 4.686s4.686 6.895 4.686 11.314z"></path>
<path fill="#f4f4fd" style="fill: var(--color2, #f4f4fd)" d="M19.198 9.588h1.753v-3.053c-0.302-0.042-1.342-0.135-2.554-0.135-2.527 0-4.258 1.59-4.258 4.511v2.689h-2.789v3.413h2.789v8.587h3.419v-8.586h2.676l0.425-3.413h-3.102v-2.351c0.001-0.986 0.266-1.662 1.641-1.662z"></path>
</symbol>
</defs>
</svg>

